SplineFontDB: 1.0
FontName: MnSymbolS-Bold9
FullName: MnSymbolS-Bold9
FamilyName: MnSymbolS-Bold9
Weight: Regular
Copyright: Generated from MetaFont bitmap by mftrace 1.1.17, http://www.xs4all.nl/~hanwen/mftrace/ 
Version: 001.001
ItalicAngle: 0
UnderlinePosition: -100
UnderlineWidth: 50
Ascent: 800
Descent: 200
NeedsXUIDChange: 1
UniqueID: 4214511
OS2TypoAscent: 0
OS2TypoAOffset: 1
OS2TypoDescent: 0
OS2TypoDOffset: 1
OS2TypoLinegap: 0
OS2WinAscent: 0
OS2WinAOffset: 1
OS2WinDescent: 0
OS2WinDOffset: 1
HheadAscent: 0
HheadAOffset: 1
HheadDescent: 0
HheadDOffset: 1
OS2Vendor: 'PfEd'
Encoding: Custom
UnicodeInterp: none
NameList: Adobe Glyph List
DisplaySize: -24
AntiAlias: 1
FitToEm: 1
WinInfo: 54 18 9
BeginPrivate: 3
lenIV 1 4
BlueValues 2 []
ForceBold 5 false
EndPrivate
BeginChars: 256 28
StartChar: A
Encoding: 65 65 2
Width: 946
Flags: HMW
Back
137.125 116.001 m 0
 144.337 110.098 152.818 105.289 162.228 101.864 c 0
 169.985 99.04 178.373 97.1514 187.189 96.2881 c 0
 237.867 91.3242 317.456 194.281 371.621 262.89 c 0
 471.553 389.468 558.849 521.276 632.423 655.304 c 1
 701.615 655.304 l 1
 699.629 650.585 697.452 645.926 695.096 641.396 c 0
 605.438 469.049 499.096 305.581 378.541 152.881 c 0
 298.288 51.2305 209.553 -56.3945 140.14 -49.5947 c 0
 129.412 -48.5439 119.186 -46.252 109.59 -42.7588 c 0
 97.9502 -38.5225 87.2383 -32.5293 77.6982 -24.7197 c 0
 49.3223 -1.49219 44.1504 19.0137 40.2109 37.2168 c 0
 34.7266 62.5605 48.4932 110.045 68.9854 140.255 c 0
 89.4766 170.465 109.252 172.448 114.455 146.672 c 0
 116.51 136.492 123.945 126.788 137.125 116.001 c 0
824.292 241.887 m 0
 831.545 188.186 844.268 136.532 862.27 87.625 c 0
 863.143 85.2539 863.982 83.5723 864.918 81.9521 c 0
 873.716 66.7139 888.956 65.1973 893.089 65.458 c 0
 894.512 65.5479 888.906 65.1396 878.32 59.7988 c 1
 927.861 84.793 l 2
 965.31 103.687 997.792 105.313 1000.37 88.4248 c 0
 1002.94 71.5361 974.639 42.4961 937.19 23.6025 c 2
 887.652 -1.39062 l 2
 853.327 -18.708 824.981 -24.8818 805.361 -26.1221 c 0
 765.574 -28.6387 742.675 -13.1006 732.076 5.25781 c 0
 730.568 7.86914 729.211 10.5781 727.805 14.3994 c 0
 709.203 64.9355 696.052 118.311 688.546 173.884 c 0
 666.684 335.762 655.354 501.207 654.618 669.362 c 0
 654.539 687.47 684.938 716.554 722.476 734.282 c 0
 760.012 752.011 790.54 751.703 790.619 733.596 c 0
 791.349 566.769 802.591 402.573 824.292 241.887 c 0
395.913 161.886 m 2
 368.982 161.886 368.436 182.494 394.691 207.886 c 0
 420.946 233.278 464.111 253.886 491.042 253.886 c 2
 803.984 253.887 l 2
 830.914 253.887 831.462 233.278 805.206 207.886 c 0
 778.95 182.494 735.785 161.886 708.855 161.886 c 2
 395.913 161.886 l 2
EndSplineSet
Fore
39 50 m 0
 39 97 75 165 99 165 c 0
 107 165 112 159 114 147 c 0
 120 121 159 96 191 96 c 0
 242 96 318.946 196.042 372 263 c 0
 471.899 389.08 559 521 632 655 c 1
 655 655 l 1
 655 669 l 2
 655 696 724 747 770 747 c 0
 783 747 790.974 743 791 734 c 0
 792 382 836 132 865 82 c 0
 872 70 884 66 890 66 c 1
 928 85 l 2
 948 95 967 100 980 100 c 0
 990 100 1001 97 1001 86 c 0
 1001 69 972.852 42.2921 937 24 c 2
 888 -1 l 2
 856 -17 824 -26 796 -26 c 0
 764 -26 738.056 -13.9797 728 14 c 0
 711.095 61.0341 698 111 690 162 c 1
 396 162 l 2
 392 162 389 162 386 163 c 1
 379 153 l 2
 301 54 215 -50 146 -50 c 0
 94 -50 39 -4 39 50 c 0
679 254 m 1
 667 358 659 463 656 569 c 1
 593 456 523 347 447 242 c 1
 463 249 479 254 491 254 c 2
 679 254 l 1
EndSplineSet
EndChar
StartChar: B
Encoding: 66 66 3
Width: 765
Flags: HMW
Back
120.569 190.177 m 0
 153.772 322.989 177.924 455.726 192.838 587.434 c 1
 154.888 568.287 l 2
 117.44 549.394 84.957 547.767 82.3818 564.654 c 0
 79.8066 581.543 108.109 610.583 145.558 629.477 c 2
 260.23 687.332 l 2
 280.631 697.625 297.949 702.694 312.54 702.646 c 0
 327.131 702.596 333.842 697.445 332.811 687.087 c 0
 318.245 540.755 292.353 392.915 255.312 244.756 c 0
 238.616 177.973 210.438 111.145 170.845 46.2441 c 0
 156.488 22.7129 116.689 -4.01758 82.0068 -13.4238 c 0
 47.3232 -22.8301 30.8262 -11.3662 45.1816 12.165 c 0
 91.2568 87.6865 111.342 153.271 120.569 190.177 c 0
442.216 75.1123 m 0
 479.967 75.1123 512.321 82.4082 531.906 89.3867 c 0
 541.383 92.7637 547.565 95.8389 551.436 98.0732 c 0
 556.283 100.872 566.639 107.773 577.054 124.35 c 0
 582.676 133.297 588.045 144.928 591.449 158.543 c 0
 600.861 196.193 596.251 229.768 580.415 257.195 c 0
 541.593 324.436 442.946 348.113 349.942 332.406 c 0
 319.876 327.329 309.463 338.881 323.867 361.335 c 0
 338.271 383.789 370.523 406.282 404.632 417.662 c 0
 504.886 451.108 557.349 471.098 591.768 490.969 c 0
 607.955 500.313 613.417 505.808 616.381 517.663 c 0
 621.363 537.595 618.896 556.352 610.079 571.622 c 0
 589.974 606.444 543.325 616.732 508.215 611.583 c 0
 498.64 610.179 491.294 608.396 486.809 607.181 c 0
 481.214 605.667 468.618 601.984 455.748 594.554 c 0
 440.621 585.82 447.433 589.6 440.324 584.229 c 0
 379.7 538.432 299.726 422.406 255.312 244.756 c 0
 250.218 224.378 215.9 195.614 178.711 180.55 c 0
 141.522 165.486 115.475 169.799 120.569 190.177 c 0
 148.009 299.936 213.701 489.288 371.4 608.422 c 0
 381.521 616.067 400.8 630.136 426.603 645.032 c 0
 463.302 666.22 502.907 682.715 538.93 692.467 c 0
 554.423 696.661 569.423 699.75 584.035 701.893 c 0
 665.888 713.898 721.031 686.23 742.921 648.316 c 0
 754.672 627.965 758.725 602.646 751.124 572.242 c 0
 738.816 523.012 681.483 475.459 620.913 440.489 c 0
 608.664 433.418 595.711 426.578 582.378 419.999 c 1
 643.584 405.677 689.526 374.991 713.258 333.89 c 0
 732.031 301.373 738.173 261.047 726.192 213.123 c 0
 721.481 194.276 713.662 175.831 701.925 157.152 c 0
 666.85 101.329 608.271 63.5811 580.581 47.5947 c 0
 553.374 31.8867 526.013 19.7119 500.443 10.6006 c 0
 434.097 -13.041 378.365 -16.7041 347.275 -16.7041 c 0
 267.479 -16.7041 217.072 9.81641 192.146 26.1973 c 0
 177.365 35.9102 193.373 62.7891 227.877 86.1943 c 0
 262.381 109.601 302.38 120.714 317.16 111.001 c 0
 362.235 81.3789 409.782 75.1123 442.216 75.1123 c 0
EndSplineSet
Fore
755 602 m 0
 755 566 739 497 582 420 c 1
 686 396 733 329 733 258 c 0
 733 104 522 -17 347 -17 c 0
 267 -17 217 10 192 26 c 0
 188 29 187 32 187 37 c 0
 187 66 259 115 302 115 c 0
 324 115 354 75 442 75 c 0
 528 75 596 99 596 196 c 0
 596 285 509 337 405 337 c 0
 364 337 351 331 337 331 c 0
 324 331 317 336 317 344 c 0
 317 349 320 355 324 361 c 0
 366 427 489 432 592 491 c 0
 603 497 619 504 619 537 c 0
 619 580 582 613 527 613 c 0
 499 613 468 605 440 584 c 0
 380 538 300 422 255 245 c 0
 239 178 210 111 171 46 c 0
 154 18 97 -17 61 -17 c 0
 47 -17 40 -12 40 -3 c 0
 40 15 90 67 121 190 c 0
 154 323 178 456 193 587 c 1
 155 568 l 2
 135 558 116 553 103 553 c 0
 93 553 82 556 82 567 c 0
 82 584 110.127 610.749 146 629 c 2
 260 687 l 2
 277 696 299 703 314 703 c 0
 325 703 333 699 333 689 c 0
 333 685 324 605 318 562 c 1
 446 688 580 705 622 705 c 0
 701 705 755 664 755 602 c 0
EndSplineSet
EndChar
StartChar: C
Encoding: 67 67 4
Width: 629
Flags: HMW
Back
469.304 532.846 m 0
 476.674 550.551 480.774 575.601 470.344 593.668 c 0
 464.775 603.312 457.137 607.088 451.432 608.534 c 0
 448.238 609.344 441.479 610.83 433.262 610.83 c 0
 385.15 610.83 350.333 601.824 327.697 592.899 c 0
 318.655 589.335 311.478 585.794 304.673 581.865 c 0
 288.148 572.325 288.605 571.31 286.934 570.043 c 0
 243.293 536.979 193.627 469.944 168.706 370.261 c 0
 149.449 293.234 156.861 217.872 188.748 162.644 c 0
 223.65 102.192 277.534 81.0146 316.425 74.6094 c 0
 329.001 72.5381 359.777 68.3447 397.192 79.2578 c 0
 410.493 83.1367 419.769 87.3994 428.555 92.4717 c 0
 438.622 98.2842 447.411 105.355 451.36 108.693 c 0
 458.273 114.537 465.974 121.902 473.89 130.838 c 0
 496.125 155.936 538.715 179.148 568.957 182.653 c 0
 599.199 186.157 605.697 168.632 583.463 143.534 c 0
 569.088 127.31 552.865 111.373 534.589 95.9238 c 0
 508.264 73.6709 482.031 56.04 457.699 41.9922 c 0
 417.251 18.6396 379.158 3.86426 349.824 -4.69141 c 0
 295.754 -20.4629 249.307 -22.9795 208.149 -16.2002 c 0
 162.338 -8.65527 96.9355 14.8857 55.9062 85.9492 c 0
 29.6729 131.386 7.41211 209.479 33.9629 315.682 c 0
 51.1475 384.42 93.6758 500.033 217.615 593.936 c 0
 235.508 607.493 255.078 620.538 275.528 632.345 c 0
 299.577 646.229 324.638 658.265 349.096 667.907 c 0
 377.349 679.047 442.29 702.646 528.201 702.646 c 0
 541.804 702.646 553.767 701.076 564.58 698.335 c 0
 584.176 693.366 595.83 683.103 603.186 670.362 c 0
 612.944 653.46 618.9 621.492 601.233 579.056 c 0
 589.773 551.527 575.793 524.149 559.202 497.091 c 0
 544.76 473.536 504.919 446.834 470.272 437.486 c 0
 435.626 428.14 419.228 439.67 433.67 463.224 c 0
 447.303 485.457 459.304 508.825 469.304 532.846 c 0
EndSplineSet
Fore
428 448 m 0
 428 462 477 524 477 569 c 0
 477 589 468 611 433 611 c 0
 362 611 316.06 591.92 287 570 c 0
 219.141 518.814 158 399 158 286 c 0
 158 147 251 71 346 71 c 0
 391 71 437 90 474 131 c 0
 502 163 550 183 576 183 c 0
 590 183 597 178 597 169 c 0
 597 162 592 154 583 144 c 0
 500 49 366 -19 249 -19 c 0
 113 -19 23 75 23 223 c 0
 23 470 255 703 528 703 c 0
 601 703 613 661 613 634 c 0
 613 607 600.74 565.159 559 497 c 0
 541.893 469.065 485 434 449 434 c 0
 436 434 428 439 428 448 c 0
EndSplineSet
EndChar
StartChar: D
Encoding: 68 68 5
Width: 916
Flags: HMW
Back
277.912 315.682 m 0
 302.458 413.865 316.144 511.989 318.625 608.138 c 0
 319.099 626.504 349.945 655.58 387.479 673.04 c 0
 425.013 690.5 455.09 689.764 454.616 671.397 c 0
 452.068 572.701 438.029 471.757 412.655 370.261 c 0
 387.28 268.765 350.734 167.34 303.44 67.6055 c 0
 292.813 45.1953 254.971 17.4053 218.97 5.57617 c 0
 182.969 -6.25293 162.376 2.33496 173.003 24.7451 c 0
 218.104 119.854 253.366 217.498 277.912 315.682 c 0
348.298 92.083 m 2
 475.726 92.084 580.694 124.388 641.465 159.473 c 0
 674.001 178.257 740.353 224 764.756 321.614 c 0
 781.119 387.068 775.14 438.86 751.892 479.126 c 0
 705.575 559.348 589.911 593.859 442.793 593.859 c 2
 339.15 593.859 l 2
 312.273 593.859 311.728 614.426 337.931 639.768 c 0
 364.135 665.108 407.214 685.676 434.091 685.675 c 2
 537.733 685.675 l 2
 700.729 685.675 831.745 647.599 884.734 555.82 c 0
 911.285 509.834 918.044 450.373 899.499 376.193 c 0
 872.124 266.694 785.558 175.357 670.609 108.994 c 0
 527.758 26.5205 371.973 0.267578 253.357 0.267578 c 2
 122.356 0.267578 l 2
 95.4805 0.267578 94.9336 20.835 121.138 46.1758 c 0
 147.341 71.5176 190.421 92.084 217.297 92.084 c 2
 348.298 92.083 l 2
178.162 568.689 m 0
 175.354 567.069 169.318 560.148 163.835 548.929 c 0
 161.012 543.154 158.372 536.172 156.38 528.204 c 0
 151.285 507.826 116.969 479.062 79.7793 463.998 c 0
 42.5898 448.934 16.542 453.246 21.6367 473.624 c 0
 24.4512 484.883 28.4189 495.896 33.8223 506.95 c 0
 54.2822 548.808 95.0215 587.995 149.017 619.169 c 0
 180.565 637.383 210.667 649.506 237.748 658.171 c 0
 309.793 681.223 381.328 685.675 434.091 685.676 c 0
 460.968 685.676 461.514 665.108 435.311 639.768 c 0
 409.106 614.426 366.027 593.859 339.15 593.859 c 0
 277.718 593.859 228.812 586.424 197.119 576.283 c 0
 185.425 572.542 179.206 569.293 178.162 568.689 c 0
EndSplineSet
Fore
348 92 m 2
 476 92 580.943 124.098 641 159 c 0
 735.91 214.156 774 308 774 386 c 0
 774 554 602 593 450 594 c 1
 437 438 395 267 315 92 c 1
 348 92 l 2
910 455 m 0
 910 199 589 0 253 0 c 2
 122 0 l 2
 109 0 102 6 102 14 c 0
 102 35 151 80 202 90 c 1
 277 268 312 440 318 594 c 1
 254 591 198 580 178 569 c 0
 175 567 163 554 156 528 c 0
 149 499 82 455 42 455 c 0
 29 455 21 460 21 469 c 0
 21 470 21 472 22 474 c 1
 51 591 214 686 434 686 c 2
 538 686 l 2
 779 686 910 605 910 455 c 0
EndSplineSet
EndChar
StartChar: E
Encoding: 69 69 6
Width: 623
Flags: HMW
Back
500.43 553.109 m 2
 504.182 559.188 508.652 574.255 500.312 588.701 c 0
 493.801 599.979 483.989 604.032 476.849 605.326 c 0
 456.428 609.028 435.553 610.83 414.742 610.83 c 0
 386.794 610.83 364.58 606.562 350.345 602.753 c 0
 345.276 601.397 331.713 597.533 322.782 592.377 c 0
 314.654 587.685 307.775 578.198 303.229 570.221 c 0
 299.247 563.236 295.488 554.448 292.949 544.294 c 0
 287.246 521.48 289.905 501.757 299.468 485.194 c 0
 323.605 443.387 390.852 423.179 465.083 423.179 c 0
 491.96 423.179 492.506 402.611 466.303 377.271 c 0
 440.099 351.929 397.02 331.362 370.143 331.362 c 0
 292.366 331.362 200.338 350.109 166.626 408.5 c 0
 154.166 430.08 150.003 456.902 158.206 489.714 c 0
 161.865 504.351 167.617 518.783 175.959 533.417 c 0
 206.838 587.592 262.943 625.135 293.638 642.856 c 0
 332.229 665.136 369.783 679.296 403.16 688.227 c 0
 426.55 694.484 463.951 702.646 509.683 702.646 c 0
 536.417 702.646 561.892 700.356 586.132 695.962 c 0
 606.841 692.209 623.157 682.71 633.154 665.396 c 0
 652.533 631.831 631.046 595.218 625.517 586.259 c 2
 622.883 582.073 l 2
 607.975 558.395 567.916 531.85 533.468 522.821 c 0
 499.019 513.793 483.159 525.682 498.067 549.36 c 2
 500.43 553.109 l 2
256.205 304.018 m 0
 243.451 296.654 234.084 288.408 229.826 284.455 c 0
 211.071 267.042 188.411 237.437 177.981 195.719 c 0
 172.246 172.776 175.022 152.456 184.874 135.394 c 0
 207.692 95.8711 267.443 75.1123 333.093 75.1123 c 0
 344.511 75.1123 372.913 76.1006 403.025 87.5332 c 0
 411.838 90.8789 419.104 94.3965 426.308 98.5557 c 0
 430.635 101.054 435.728 104.271 441.361 108.366 c 0
 450.138 114.747 460.138 123.181 470.734 134.172 c 0
 495.116 159.458 538.067 181.331 566.607 182.995 c 0
 595.146 184.659 598.521 165.488 574.139 140.201 c 0
 554.153 119.474 531.065 99.208 504.962 80.2295 c 0
 489.327 68.8633 472.656 58.0088 455.452 48.0762 c 0
 429.892 33.3193 403.311 20.7295 377.697 11.0049 c 0
 326.186 -8.55176 279.66 -16.7041 238.152 -16.7041 c 0
 165.492 -16.7041 83.7041 3.8418 52.0312 58.6992 c 0
 39.3145 80.7256 34.9482 107.978 43.2383 141.139 c 0
 52.2285 177.098 74.1016 230.359 136.377 288.178 c 0
 158.07 308.319 188.368 332.158 227.061 354.497 c 0
 251.748 368.75 277.201 380.844 301.85 390.463 c 0
 361.29 413.66 415.577 423.179 465.083 423.179 c 0
 491.96 423.179 492.506 402.611 466.303 377.271 c 0
 440.1 351.93 397.02 331.362 370.143 331.362 c 0
 355.365 331.362 318.253 330.205 279.366 315.03 c 0
 270.13 311.425 262.739 307.79 256.205 304.018 c 0
EndSplineSet
Fore
492 534 m 0
 492 547 505 553 505 572 c 0
 505 603 474 611 415 611 c 0
 322 611 302.118 580.971 293 544 c 0
 291.026 535.994 290 528 290 521 c 0
 290 444 396 423 465 423 c 0
 479 423 486 418 486 409 c 0
 486 378 410 331 370 331 c 0
 205 331 175 204 175 172 c 0
 175 100 267 75 333 75 c 0
 398 75 439 102 471 134 c 0
 500 164 545 183 570 183 c 0
 583 183 590 178 590 169 c 0
 590 162 585 152 574 140 c 0
 504 68 373 -17 238 -17 c 0
 155 -17 39 14 39 108 c 0
 39 158 79 270 230 356 c 1
 187 375 154 407 154 456 c 0
 154 578 333 703 510 703 c 0
 592 703 641 689 641 635 c 0
 641 566 552 520 513 520 c 0
 500 520 492 525 492 534 c 0
EndSplineSet
EndChar
StartChar: F
Encoding: 70 70 7
Width: 832
Flags: HMW
Back
249.672 61.5039 m 0
 253.331 61.5967 245.764 60.7637 235.826 55.0264 c 1
 235.831 55.0293 231.146 52.2803 230.145 51.3701 c 1
 232.267 53.2988 239.212 60.1748 247.15 73.3242 c 0
 293.367 149.881 332.968 229.484 365.082 310.792 c 0
 404.089 409.553 430.899 510.247 444.596 610.123 c 0
 447.249 629.473 479.791 658.457 517.233 674.82 c 0
 554.676 691.184 582.91 688.76 580.257 669.41 c 0
 566.103 566.192 538.372 461.688 497.489 358.179 c 0
 463.939 273.236 422.354 189.464 373.08 107.845 c 0
 355.658 78.9863 334.877 57.8789 321.403 45.6338 c 0
 306.869 32.4268 288.1 17.9004 264.971 4.54688 c 0
 245.83 -6.50293 202.128 -29.1377 157.475 -30.2773 c 0
 75.8535 -32.3604 34.9268 7.02832 18.333 29.1328 c 0
 8.61426 42.0791 30.1523 70.2666 66.4092 92.0508 c 0
 102.665 113.836 139.979 121.01 149.697 108.063 c 0
 175.453 73.7539 215.22 60.624 249.672 61.5039 c 0
813.654 586.226 m 0
 810.873 588.658 809.988 588.153 809.848 588.205 c 0
 805.818 589.679 807.804 588.909 806.083 589.352 c 0
 791.128 593.203 765.368 593.859 726.846 593.858 c 2
 399.398 593.859 l 2
 371.588 593.858 348.875 589.289 334.528 585.11 c 0
 321.944 581.444 314.728 577.821 311.999 576.245 c 0
 303.879 571.558 296.998 562.042 292.45 554.069 c 0
 288.47 547.089 284.716 538.321 282.187 528.204 c 0
 277.092 507.826 242.775 479.062 205.586 463.998 c 0
 168.396 448.934 142.349 453.246 147.443 473.624 c 0
 151.097 488.239 156.853 502.663 165.194 517.29 c 0
 196.102 571.48 252.162 609.005 282.854 626.725 c 0
 319.931 648.13 354.874 661.188 381.984 669.085 c 0
 406.639 676.267 446.84 685.675 494.339 685.675 c 2
 821.786 685.675 l 2
 842.29 685.675 891.375 686.326 919.421 679.104 c 0
 921.141 678.661 923.593 678.06 927.622 676.586 c 0
 942.581 671.114 945.253 664.713 946.496 662.92 c 0
 950.326 657.399 949.911 650.989 948.322 644.634 c 0
 943.228 624.256 908.91 595.491 871.722 580.428 c 0
 834.532 565.363 808.484 569.676 813.579 590.054 c 0
 813.581 590.061 813.654 586.226 813.654 586.226 c 0
693.493 288.485 m 1
 383.721 288.485 l 2
 356.791 288.485 356.244 309.093 382.499 334.485 c 0
 408.755 359.878 451.92 380.485 478.85 380.485 c 2
 788.622 380.485 l 2
 804.881 380.485 811.645 374.158 808.563 361.831 c 2
 804.706 346.401 l 2
 799.603 325.982 765.218 297.161 727.954 282.066 c 0
 690.691 266.972 664.592 271.292 669.695 291.711 c 2
 673.553 307.141 l 1
 689.569 317.35 707.036 321.456 712.539 316.308 c 0
 718.043 311.159 709.511 298.694 693.493 288.485 c 1
EndSplineSet
Fore
950 652 m 0
 950 620 876 571 834 571 c 0
 820 571 812 577 813 587 c 1
 805 593 772 594 727 594 c 2
 567 594 l 1
 554 525 533 453 506 380 c 1
 789 380 l 2
 802 380 809 376 809 367 c 2
 809 362 l 1
 805 346 l 2
 797 317 730 273 690 273 c 0
 676 273 668 278 669 288 c 1
 468 288 l 1
 441 229 410 168 373 108 c 0
 334 42 240 -30 151 -30 c 0
 61 -30 16 25 16 37 c 0
 16 67 91 115 132 115 c 0
 140 115 146 112 150 108 c 1
 173 77 207 64 238 62 c 1
 297 144 366 313 366 313 c 2
 402 406 428 500 442 594 c 1
 399 594 l 2
 310 594 291 564 282 528 c 0
 274.764 499.058 208 455 167 455 c 0
 155 455 147 460 147 469 c 2
 147 474 l 1
 175 582 337 686 494 686 c 2
 822 686 l 2
 909 686 950 679 950 652 c 0
EndSplineSet
EndChar
StartChar: G
Encoding: 71 71 8
Width: 698
Flags: HMW
Back
543.927 542.382 m 0
 549.372 551.698 553.743 568.514 544.423 584.656 c 0
 541.86 589.095 535.475 598.143 522.458 601.565 c 0
 498.712 607.811 473.933 610.83 449.394 610.83 c 0
 380.064 610.83 337.48 594.591 322.105 587.906 c 0
 315.541 585.053 310.053 582.254 304.957 579.312 c 0
 291.822 571.729 284.247 565.085 280.016 561.415 c 0
 251.876 537.014 214.6 489.306 195.535 413.046 c 0
 179.646 349.49 186.836 288.116 213.319 242.246 c 0
 243.081 190.699 292.565 163.257 349.501 160.632 c 0
 359.633 160.165 378.517 159.79 402.108 166.101 c 0
 414.663 169.459 424.289 173.539 433.483 178.847 c 0
 444.909 185.443 454.573 193.77 458.801 197.576 c 0
 484.115 220.37 515.058 260.38 528.883 315.682 c 0
 533.978 336.059 568.295 364.823 605.483 379.888 c 0
 642.673 394.951 668.721 390.639 663.626 370.261 c 0
 648.933 311.484 612.505 248.064 549.094 190.967 c 0
 527.895 171.878 499.41 149.604 462.628 128.367 c 0
 425.067 106.683 385.215 90.2373 349.277 80.624 c 0
 327.252 74.7314 291.224 67.0205 250.123 68.916 c 0
 221.35 70.2432 131.031 77.9912 80.4775 165.552 c 0
 58.374 203.835 38.4395 269.057 60.791 358.467 c 0
 79.0645 431.557 118.287 506.146 193.847 571.668 c 0
 221.379 595.542 249.794 614.77 275.812 629.791 c 0
 294.389 640.516 313.492 650.092 332.352 658.291 c 0
 408.427 691.365 480.872 702.646 544.335 702.646 c 0
 577.233 702.646 607.77 698.689 636.055 691.25 c 0
 656.494 685.875 669.354 675.053 677.265 661.351 c 0
 685.812 646.547 693.396 617.153 670.634 578.211 c 0
 655.526 552.365 636.581 526.679 612.55 501.141 c 0
 588.795 475.896 545.928 453.61 516.864 451.396 c 0
 487.8 449.182 483.491 467.873 507.246 493.117 c 0
 520.018 506.688 532.923 523.557 543.927 542.382 c 0
363.146 -22.0859 m 0
 371.7 -22.0859 383.575 -20.9326 389.353 -18.8027 c 0
 389.366 -18.7979 388.116 -19.3467 387.029 -19.9746 c 1
 389.165 -18.7412 385.255 -21.125 386.147 -20.5166 c 0
 456.299 27.2998 515.108 260.583 528.883 315.682 c 0
 533.978 336.06 568.295 364.823 605.483 379.888 c 0
 642.673 394.951 668.721 390.639 663.626 370.261 c 0
 607.023 143.849 554.243 22.3643 440.412 -55.2256 c 0
 435.76 -58.3965 434.736 -59.7373 416.174 -70.4541 c 0
 400.411 -79.5547 382.197 -88.6455 361.132 -96.4131 c 0
 321.144 -111.159 290.491 -113.902 268.206 -113.902 c 0
 204.657 -113.902 143.951 -107.018 86.6064 -93.6191 c 0
 65.3779 -88.6602 73.2734 -64.4658 104.23 -39.6143 c 0
 135.188 -14.7637 177.541 1.38086 198.77 -3.5791 c 0
 251.78 -15.9639 307.083 -22.0859 363.146 -22.0859 c 0
EndSplineSet
Fore
492 465 m 0
 492 488 549 524 549 568 c 0
 549 594 527 611 449 611 c 0
 354 611 304 582 280 561 c 0
 232 520 187 432 187 346 c 0
 187 229 269 160 357 160 c 0
 460 160 513 252 529 316 c 0
 536.236 344.942 604 389 644 389 c 0
 656 389 664 384 664 375 c 2
 664 370 l 1
 608 147 546.877 -26.671 361 -96 c 0
 320.974 -110.929 290 -114 268 -114 c 0
 205 -114 144 -107 87 -94 c 0
 79 -92 75 -87 75 -81 c 0
 75 -49 150 -3 190 -3 c 0
 207 -3 259 -22 363 -22 c 0
 379 -22 388 -19 389 -18 c 0
 421 6 451 70 475 136 c 1
 407 94 331 69 261 69 c 0
 133 69 52 155 52 283 c 0
 52 506 282 703 544 703 c 0
 624 703 686 688 686 630 c 0
 686 596 662 554 613 501 c 0
 592 480 546 451 512 451 c 0
 499 451 492 456 492 465 c 0
EndSplineSet
EndChar
StartChar: H
Encoding: 72 72 9
Width: 1016
Flags: HMW
Back
321.502 358.582 m 0
 337.083 420.903 346.679 483.214 350.122 544.571 c 0
 350.685 554.592 348.472 564.039 343.993 571.796 c 0
 334.593 588.076 318.414 593.863 306.312 593.858 c 0
 273.119 593.846 247.994 589.744 231.275 585.208 c 0
 226.53 583.921 214.88 580.649 205.336 575.14 c 0
 197.637 570.694 190.268 564.346 183.032 557.055 c 0
 166.798 540.692 154.225 521.556 150.895 516.453 c 0
 135.334 492.607 94.9824 466.293 60.8232 457.716 c 0
 26.6631 449.139 11.5684 461.53 27.1279 485.376 c 0
 48.2871 517.801 68.3916 539.734 81.9922 553.441 c 0
 107.13 578.775 139.468 604.417 176.19 625.618 c 0
 213.189 646.979 250.548 661.582 283.263 670.458 c 0
 335.35 684.59 380.761 685.667 401.213 685.675 c 0
 446.854 685.692 468.127 663.573 476.835 648.491 c 0
 483.557 636.849 486.975 622.923 486.071 606.811 c 0
 482.5 543.175 472.545 478.361 456.245 413.162 c 0
 424.008 284.211 380.691 155.353 326.675 27.9131 c 0
 317.364 5.94727 280.295 -22.1357 243.932 -34.7725 c 0
 207.568 -47.4092 185.612 -39.8379 194.923 -17.8721 c 0
 247.527 106.232 289.911 232.217 321.502 358.582 c 0
788.282 280.998 m 0
 772.413 217.52 762.583 154.053 758.967 91.543 c 0
 758.378 81.3789 760.609 71.7549 765.117 63.9463 c 0
 773.119 50.0879 786.835 43.7285 797.912 43.1309 c 0
 799.223 43.0596 795.479 42.8975 800.583 43.1074 c 0
 818.896 43.8604 851.556 46.4121 866.179 51.2451 c 0
 866.198 51.252 862.687 49.9922 856.607 46.4824 c 0
 843.191 38.7373 836.46 31.5225 835.693 30.1084 c 1
 836.562 31.7119 837.648 34.4287 838.454 37.6504 c 0
 843.549 58.0283 877.865 86.793 915.055 101.856 c 0
 952.244 116.921 978.292 112.607 973.197 92.2305 c 0
 970.999 83.4404 968.011 76.1768 963.984 68.749 c 0
 944.871 33.4824 903.787 6.41602 885.753 -3.99609 c 0
 864.004 -16.5527 844.267 -24.4697 828.153 -29.7959 c 0
 776.479 -46.875 720.846 -48.1748 710.171 -48.6133 c 0
 705.066 -48.8232 700.18 -48.6768 697.838 -48.5508 c 0
 678.074 -47.4834 648.284 -40.4766 632.275 -12.748 c 0
 625.488 -0.993164 622.08 13.1006 623.021 29.3633 c 0
 626.77 94.1377 636.957 160.088 653.539 226.418 c 0
 686.204 357.078 729.943 487.646 784.384 616.808 c 0
 793.633 638.752 830.664 666.848 867.043 679.521 c 0
 903.422 692.195 925.44 684.671 916.191 662.727 c 0
 863.133 536.842 820.31 409.107 788.282 280.998 c 0
186.541 262.671 m 2
 159.611 262.671 159.063 283.278 185.319 308.671 c 0
 211.575 334.063 254.74 354.671 281.67 354.671 c 2
 714.481 354.672 l 2
 741.411 354.672 741.958 334.063 715.703 308.672 c 0
 689.447 283.279 646.282 262.671 619.353 262.671 c 2
 186.541 262.671 l 2
EndSplineSet
Fore
193 -27 m 0
 193 -15 243 83 296 263 c 1
 187 263 l 2
 173 263 166 268 166 277 c 0
 166 308 241 355 282 355 c 2
 320 355 l 1
 336 421 350 509 350 548 c 0
 350 575 329 594 306 594 c 0
 221 594 191 577 151 516 c 0
 132 488 77 455 42 455 c 0
 28 455 21 460 21 469 c 0
 21 473 23 479 27 485 c 0
 100 597 234 686 401 686 c 0
 457 686 486 652 486 612 c 0
 486 562 468 455 441 355 c 1
 689 355 l 1
 729 485 774 591 784 617 c 0
 797 647 860 686 898 686 c 0
 911 686 918 681 918 672 c 0
 918 669 918 666 916 663 c 0
 787 356 759 144 759 88 c 0
 759 57 784 43 800 43 c 0
 804 43 826 44 843 47 c 1
 866 85 926 111 953 111 c 0
 966 111 974 106 974 97 c 0
 974 72 930 4 828 -30 c 0
 784 -44 730 -49 705 -49 c 0
 655 -49 623 -19 623 24 c 0
 623 73 641 180 666 275 c 1
 649 268 632 263 619 263 c 2
 414 263 l 1
 376 145 336.986 51.0061 327 28 c 0
 313.982 -1.99206 251 -41 213 -41 c 0
 200 -41 193 -36 193 -27 c 0
EndSplineSet
EndChar
StartChar: I
Encoding: 73 73 10
Width: 661
Flags: HMW
Back
362.239 593.767 m 2
 335.919 593.767 202.47 595.315 157.544 577.427 c 0
 156.563 577.036 159.551 578.416 161.25 579.396 c 0
 169.11 583.936 173.795 588.192 174.484 589.239 c 1
 172.624 586.415 170.695 582.261 169.155 576.101 c 0
 164.051 555.682 129.665 526.859 92.4023 511.766 c 0
 55.1396 496.672 29.04 500.993 34.1445 521.411 c 0
 38.3672 538.299 45.5576 550.636 50.75 558.523 c 0
 66.8906 583.039 95.2822 608.751 132.049 629.978 c 0
 148.273 639.346 163.856 646.562 177.922 652.164 c 0
 253.832 682.39 338.248 685.767 457.368 685.767 c 2
 740.403 685.768 l 2
 767.333 685.768 767.88 665.159 741.624 639.767 c 0
 715.369 614.375 672.204 593.767 645.273 593.767 c 2
 362.239 593.767 l 2
515.196 601.013 m 0
 514.701 600.727 525.157 607.75 525.11 607.704 c 0
 479.004 561.604 439.907 386.533 435.84 370.262 c 0
 396.129 211.419 351.875 130.43 286.535 74.5537 c 0
 272.706 62.7285 255.434 50.0371 235.544 38.5537 c 0
 198.256 17.0264 168.939 9.11914 155.144 5.90527 c 0
 137.353 1.75977 122.062 0.267578 107.796 0.267578 c 0
 80.9189 0.267578 80.373 20.834 106.576 46.1758 c 0
 132.779 71.5166 175.859 92.084 202.736 92.084 c 0
 207.613 92.084 212.479 92.5596 215.282 93.2129 c 0
 215.455 93.2529 211.517 91.9883 206.398 89.0332 c 1
 206.412 89.041 200.606 85.0215 201.96 86.1787 c 0
 249.322 126.681 287.107 259.724 301.097 315.682 c 0
 339.299 468.495 365.669 545.7 424.749 604.772 c 0
 438.964 618.984 459.156 635.964 486.052 651.491 c 0
 525.794 674.437 564.192 685.675 598.791 685.675 c 0
 625.668 685.676 626.215 665.108 600.011 639.768 c 0
 573.808 614.426 530.728 593.859 503.852 593.859 c 0
 492.538 593.859 515.202 601.016 515.196 601.013 c 0
521.252 92.1758 m 2
 547.255 92.1758 561.769 95.6934 564.287 96.4453 c 0
 564.306 96.4502 561.176 95.8828 551.388 90.2324 c 1
 551.399 90.2393 526.31 65.3301 528.863 75.543 c 0
 533.968 95.9609 568.353 124.783 605.615 139.878 c 0
 642.878 154.973 668.978 150.651 663.873 130.232 c 0
 655.093 95.1084 621.264 63.1348 580.59 39.6514 c 0
 557.265 26.1846 535.445 17.875 518.354 12.7783 c 0
 479.482 1.18555 444.695 0.175781 426.123 0.174805 c 2
 1.56152 0.174805 l 2
 -25.3691 0.174805 -25.916 20.7832 0.339844 46.1748 c 0
 26.5947 71.5674 69.7598 92.1758 96.6904 92.1758 c 2
 521.252 92.1758 l 2
EndSplineSet
Fore
-19 14 m 0
 -19 45 56 92 97 92 c 2
 208 92 l 1
 253 139 288 262 301 316 c 0
 332 438 356 529 414 594 c 1
 362 594 l 2
 348 594 299 603 252 603 c 0
 223 603 194 599 174 589 c 1
 172 583 164.966 541.086 92 512 c 0
 76.9929 506.018 64 503 54 503 c 0
 41 503 34 508 34 517 c 0
 34 543 74.009 610.977 178 652 c 0
 254.007 681.983 338 686 457 686 c 2
 740 686 l 2
 754 686 761 680 761 672 c 0
 761 641 686 594 645 594 c 2
 514 594 l 1
 434 477 442 230 305 92 c 1
 521 92 l 2
 528 92 533 92 538 93 c 1
 564 125 617 149 644 149 c 0
 657 149 665 144 665 135 c 0
 665 107 614 41 518 13 c 0
 479 1 445 0 426 0 c 2
 2 0 l 2
 -12 0 -19 5 -19 14 c 0
EndSplineSet
EndChar
StartChar: J
Encoding: 74 74 11
Width: 798
Flags: HMW
Back
604.227 593.858 m 2
 552.805 593.858 511.086 581.455 487.389 570.589 c 0
 482.455 568.326 478.23 566.126 474.438 563.936 c 0
 462.751 557.188 452.227 548.661 442.385 537.491 c 0
 430.116 523.566 415.56 501.575 407.934 471.073 c 0
 402.839 450.695 368.522 421.931 331.333 406.867 c 0
 294.144 391.803 268.096 396.115 273.19 416.493 c 0
 279.002 439.738 292.746 479.322 332.452 524.387 c 0
 358.883 554.384 395.847 585.868 445.293 614.415 c 0
 460.403 623.139 475.769 631.024 490.966 637.994 c 0
 567.452 673.067 640.459 685.675 699.167 685.675 c 2
 937.466 685.675 l 2
 964.342 685.675 964.889 665.108 938.686 639.768 c 0
 912.481 614.426 869.401 593.859 842.525 593.859 c 2
 604.227 593.858 l 2
812.689 590.195 m 0
 812.676 590.188 808.182 587.979 795.897 574.06 c 0
 718.81 486.717 671.933 292.065 640.035 164.477 c 0
 622.461 94.1777 576.115 41.3291 543.769 11.0645 c 0
 522.542 -8.7959 492.866 -32.4668 454.848 -54.416 c 0
 412.398 -78.9229 371.199 -94.1191 340.89 -102.113 c 0
 309.941 -110.277 281.408 -113.902 254.764 -113.902 c 0
 167.86 -113.901 97.9404 -82.0098 68.1504 -30.4141 c 0
 52.5098 -3.32324 47.0576 30.0342 57.0264 69.9082 c 0
 62.1211 90.2861 96.4385 119.051 133.627 134.114 c 0
 170.816 149.179 196.864 144.865 191.77 124.488 c 0
 182.652 88.0176 191.959 61.9277 200.993 46.2803 c 0
 226.959 1.30664 287.609 -22.0859 349.704 -22.0859 c 0
 366.832 -22.0859 382.363 -19.6309 394.538 -16.4189 c 0
 407.319 -13.0479 417.2 -8.8457 425.703 -3.93652 c 0
 432.629 0.0615234 440.124 5.25098 449.553 14.0732 c 0
 469.728 32.9492 494.017 64.7939 505.292 109.896 c 0
 559.428 326.439 601.369 465.106 686.075 561.081 c 0
 703.227 580.514 734.058 612.104 783.544 640.674 c 0
 794.611 647.063 806.546 653.354 821.615 659.925 c 0
 839.314 667.642 883.931 685.675 937.466 685.675 c 0
 964.343 685.675 964.889 665.108 938.685 639.768 c 0
 912.481 614.426 869.402 593.859 842.525 593.859 c 0
 827.301 593.859 815.718 591.438 811.714 589.691 c 0
 811.678 589.676 812.873 590.302 812.689 590.195 c 0
EndSplineSet
Fore
192 129 m 0
 192 123 188 116 188 96 c 0
 188 28 253 -22 350 -22 c 0
 443 -22 489 48 505 110 c 0
 557.121 311.969 601 489 719 594 c 1
 604 594 l 2
 539 594 434 577 408 471 c 0
 400.893 442.026 333 398 293 398 c 0
 280 398 273 403 273 412 c 2
 273 416 l 1
 309 558 509 686 699 686 c 2
 937 686 l 2
 951 686 958 680 958 672 c 0
 958 641 883 594 843 594 c 0
 812 594 810.045 589.96 796 574 c 0
 719.247 486.782 672.412 291.896 640 164 c 0
 603 18 413 -114 255 -114 c 0
 152 -114 52 -65 52 31 c 0
 52 43 54 56 57 70 c 0
 64 99 132 143 172 143 c 0
 185 143 192 138 192 129 c 0
EndSplineSet
EndChar
StartChar: K
Encoding: 75 75 12
Width: 893
Flags: HMW
Back
167.636 378.438 m 0
 185.342 449.262 195.136 520.068 196.77 589.417 c 1
 154.889 568.287 l 2
 117.441 549.394 84.958 547.767 82.3828 564.654 c 0
 79.8076 581.543 108.11 610.583 145.559 629.477 c 2
 260.231 687.332 l 2
 279.915 697.264 296.631 702.29 311.106 702.631 c 0
 325.581 702.972 332.74 698.507 332.896 689.043 c 0
 334.264 605.711 324.054 519.716 302.379 433.019 c 0
 270.496 305.487 227.532 178.048 173.865 52.04 c 0
 164.503 30.0566 127.402 1.98438 91.0527 -10.6211 c 0
 54.7021 -23.2266 32.7998 -15.6152 42.1631 6.36914 c 0
 94.3877 128.993 136.406 253.521 167.636 378.438 c 0
731.725 613.049 m 0
 727.28 620.747 714.656 627.006 696.348 626.563 c 0
 689.495 626.398 689.954 625.815 688.295 625.474 c 0
 679.926 623.749 685.752 624.936 683.508 624.373 c 0
 656.5 617.59 604.95 595.846 544.705 561.063 c 0
 474.973 520.804 429.352 483.86 412.68 463.508 c 0
 407.705 457.436 406.121 453.898 405.701 452.22 c 0
 401.304 434.629 418.975 349.05 491.017 224.271 c 0
 547.897 125.749 605.29 67.4873 637.925 59.9209 c 0
 641.333 59.1309 631.565 59.3779 641.384 59.3779 c 0
 649.062 59.3779 691.557 59.5771 724.279 73.0547 c 0
 728.23 74.6816 731.29 76.2227 733.584 77.5469 c 0
 744.532 83.8672 749.899 93.9971 752.89 105.957 c 0
 757.772 125.49 784.465 147.731 812.471 155.602 c 0
 840.477 163.472 859.242 154.006 854.359 134.473 c 0
 843.484 90.9697 808.953 53.4492 762.861 26.8379 c 0
 751.164 20.085 739.345 14.4004 727.734 9.61816 c 0
 672.131 -13.2842 617.316 -16.9238 587.052 -16.9238 c 0
 576.725 -16.9238 568.982 -15.2793 565.485 -14.4678 c 0
 496.444 1.53809 428.562 104.388 392.265 167.257 c 0
 360.938 221.518 289.11 363.218 304.232 423.705 c 0
 308.131 439.3 318.179 455.434 330.605 470.604 c 0
 372.64 521.916 452.449 575.412 515.429 611.772 c 0
 604.682 663.302 670.211 687.432 705.816 696.374 c 0
 708.129 696.955 708.926 697.281 717.295 699.006 c 0
 731.168 701.865 730.872 702.195 750.681 702.865 c 0
 782.476 703.94 816.815 693.725 830.477 670.062 c 0
 837.539 657.83 837.682 644.386 834.486 631.602 c 0
 829.603 612.068 802.91 589.828 774.904 581.957 c 0
 746.898 574.087 728.133 583.553 733.016 603.086 c 0
 733.847 606.408 733.579 609.836 731.725 613.049 c 0
EndSplineSet
Fore
587 -17 m 0
 459 -17 302 311 302 405 c 0
 302 412 303 418 304 424 c 0
 329 523 637 703 755 703 c 0
 794 703 836 686 836 647 c 0
 836 603 782 579 757 579 c 0
 742 579 732 586 732 597 c 0
 732 602 733 603 733 606 c 0
 733 617 720 627 700 627 c 0
 640 627 405 489 405 446 c 0
 405 418 426 337 491 224 c 0
 556 112 618 59 641 59 c 0
 687 59 718 69 734 78 c 0
 745 84 749.896 94.0265 753 106 c 0
 760 133 803 158 831 158 c 0
 846 158 855 152 855 140 c 0
 855 100 776 -17 587 -17 c 0
314 703 m 0
 332 703 333 696 333 679 c 0
 333 678 333 676 333 674 c 0
 333 596 322.765 515.06 302 433 c 0
 269.634 305.093 228 178 174 52 c 0
 161 22 99 -17 61 -17 c 0
 48 -17 40 -12 40 -3 c 0
 40 10 191 329 197 589 c 1
 155 568 l 2
 135 558 116 553 103 553 c 0
 93 553 82 556 82 567 c 0
 82 584 110.127 610.749 146 629 c 2
 260 687 l 2
 275 695 298 703 314 703 c 0
EndSplineSet
EndChar
StartChar: L
Encoding: 76 76 13
Width: 807
Flags: HMW
Back
655.345 28.6055 m 0
 623.35 10.1328 591.878 -1.6084 569.602 -7.60938 c 0
 548.507 -13.292 527.829 -16.5283 506.659 -16.5283 c 0
 379.655 -16.5283 276.634 22.2207 159.399 22.2207 c 0
 154.489 22.2207 149.643 21.6309 146.774 20.9268 c 0
 145.035 20.5 149.318 21.6426 155.432 25.1719 c 1
 155.431 25.1709 162.185 29.7031 161.984 29.5342 c 0
 130.009 2.53418 83.2383 -18.0615 57.5869 -16.4404 c 0
 31.9346 -14.8184 37.0674 8.41016 69.0439 35.4092 c 0
 88.3066 51.6738 108.253 65.0254 126.379 75.4902 c 0
 169.197 100.212 202.898 109.786 218.331 113.574 c 0
 237.992 118.399 254.606 120.222 269.475 120.222 c 0
 396.479 120.222 499.5 81.4727 616.734 81.4717 c 0
 627.617 81.4717 634.906 83.4199 635.572 83.5996 c 0
 638.369 84.3535 632.775 82.667 626.293 78.9248 c 1
 626.298 78.9277 612.413 68.8516 613.09 69.7344 c 0
 613.521 70.2959 618.673 77.0137 621.496 88.3047 c 0
 626.628 108.831 663.801 139.786 704.472 157.4 c 0
 745.143 175.016 773.986 172.652 768.855 152.126 c 0
 763.39 130.265 751.872 112.93 743.59 102.129 c 0
 724.034 76.627 694.553 51.2422 655.345 28.6055 c 0
545.03 574.403 m 0
 532.334 596.393 511.257 604.314 494.414 604.314 c 0
 482.437 604.314 470.408 602.818 463.391 600.179 c 0
 463.39 600.178 464.522 600.699 465.492 601.259 c 1
 421.635 573.904 351.406 446.068 312.242 289.414 c 0
 290.517 202.509 270.305 122.601 195.018 54.4883 c 0
 185.071 45.4902 164.919 28.0859 133.596 9.29785 c 0
 93.7012 -14.6318 53.2236 -23.6709 43.2422 -10.8789 c 0
 33.2617 1.91309 57.5391 31.7168 97.4336 55.6465 c 0
 97.4434 55.6514 91.6836 51.5186 93.0576 52.7617 c 0
 131.676 87.6992 155.785 190.872 164.415 225.389 c 0
 235.993 511.698 350.299 598.77 436.348 651.736 c 0
 454.299 662.786 476.003 673.033 500.146 682.116 c 0
 546.099 699.406 580.549 702.627 604.84 702.627 c 0
 651.365 702.627 678.326 680.98 691.151 658.768 c 0
 703.188 637.919 707.001 611.471 699.326 580.769 c 0
 694.179 560.178 656.888 529.124 616.087 511.453 c 0
 575.286 493.782 546.351 496.152 551.498 516.743 c 0
 556.697 537.538 554.173 558.567 545.03 574.403 c 0
EndSplineSet
Fore
551 512 m 0
 551 517 554 523 554 538 c 0
 554 575 529 604 494 604 c 0
 476 604 466 601 464 600 c 0
 420 571 351 444 312 289 c 0
 298.684 236.078 285 176 249 119 c 1
 257 120 264 120 269 120 c 0
 396 120 501 81 618 81 c 1
 642 141 724 169 750 169 c 0
 762 169 769 165 769 157 c 2
 769 152 l 1
 748 67 608 -17 507 -17 c 0
 380 -17 277 22 159 22 c 0
 153 22 l 1
 112 -6 79 -17 60 -17 c 0
 51 -17 41 -14 41 -4 c 0
 41 13 69 38 98 58 c 1
 134 97 155.738 192.065 164 225 c 0
 236 512 350 599 436 652 c 0
 482 680 547 703 605 703 c 0
 662 703 703 667 703 612 c 0
 703 602 702 592 699 581 c 0
 692 552 616 500 570 500 c 0
 558 500 551 504 551 512 c 0
EndSplineSet
EndChar
StartChar: M
Encoding: 77 77 14
Width: 1418
Flags: HMW
Back
1269.03 66.4443 m 1
 1270.46 66.4443 1270.64 66.7393 1269.03 66.4443 c 1
649.105 286.309 m 0
 660.429 259.082 673.383 232.841 687.902 207.69 c 0
 699.692 187.271 712.514 167.569 726.332 148.643 c 1
 673.426 107.479 l 1
 651.104 34.4268 l 1
 642.658 34.4316 636.066 36.4951 632.449 40.8232 c 0
 607.386 70.8096 584.975 102.919 565.34 136.929 c 0
 550.293 162.992 536.877 190.171 525.15 218.367 c 0
 488.219 307.172 455.371 398.244 426.678 491.375 c 1
 412.437 432.24 393.864 369.242 369.866 303.308 c 0
 361.523 280.386 352.688 257.546 343.381 234.836 c 0
 308.087 148.721 227.643 -55.9287 136.055 -49.624 c 0
 120.325 -48.541 105.34 -45.4287 91.3711 -40.3447 c 0
 84.666 -37.9043 78.1953 -35.0078 71.9902 -31.6553 c 0
 57.4883 -23.8193 49.6553 -16.6357 44.8086 -11.2539 c 0
 32.8184 2.06055 37.0801 43.7344 54.3232 81.7666 c 0
 71.5664 119.8 95.2939 139.86 107.285 126.546 c 0
 110.891 122.543 116.826 117.455 127.618 111.623 c 0
 132.819 108.812 138.296 106.357 144.008 104.278 c 0
 155.909 99.9463 168.834 97.251 182.402 96.3174 c 0
 220.745 93.6787 250.168 162.347 294.224 269.84 c 0
 301.534 287.677 308.425 305.495 314.909 323.311 c 0
 351.752 424.539 376.005 526.392 387.133 630.869 c 1
 387.565 630.654 l 1
 387.746 630.654 l 1
 387.634 647.018 411.146 671.908 443.179 688.442 c 0
 477.702 706.263 509.114 707.662 513.294 691.565 c 0
 549.535 552.008 594.882 416.691 649.105 286.309 c 0
1234.15 220.997 m 0
 1232.46 175.851 1235.85 131.811 1244.26 89.6914 c 0
 1244.97 86.1328 1246.19 82.9219 1247.81 80.1152 c 0
 1252.42 72.1445 1260.01 68.0586 1266.15 66.8174 c 1
 1301.78 84.793 l 2
 1339.23 103.687 1371.71 105.314 1374.29 88.4258 c 0
 1376.86 71.5381 1348.56 42.4971 1311.11 23.6035 c 2
 1261.57 -1.3916 l 2
 1242.8 -10.8633 1202 -28.8213 1164.06 -24.8613 c 0
 1149.52 -23.3438 1127.2 -17.7598 1114.97 3.4209 c 0
 1112.11 8.37695 1110.01 13.9229 1108.79 20.0664 c 0
 1099.97 64.2344 1096.38 110.485 1098.17 158.126 c 0
 1102.69 278.362 1114.4 399.963 1133.25 522.353 c 1
 1246.19 629.733 l 1
 1283.94 672.192 l 1
 1283.93 671.229 1283.82 670.216 1283.63 669.155 c 0
 1256.24 518.551 1239.7 368.78 1234.15 220.997 c 0
866.853 328.559 m 0
 996.999 447.228 1124.58 568.527 1249.45 692.316 c 0
 1270.37 713.062 1285.9 701.861 1284.1 667.315 c 0
 1282.31 632.771 1263.87 587.896 1242.94 567.151 c 0
 1116.73 442.036 987.885 319.53 856.525 199.756 c 0
 794.818 143.491 730.782 90.2109 664.694 40.0967 c 0
 644.252 24.5947 631.572 42.2012 636.391 79.3955 c 0
 641.21 116.591 661.713 159.359 682.155 174.861 c 0
 746.092 223.344 807.775 274.69 866.853 328.559 c 0
EndSplineSet
Fore
867 329 m 2
 1249 692 l 2
 1257 699 1263 703 1268 703 c 0
 1278 703 1284 692 1284 673 c 0
 1284 667 1234 400 1234 201 c 0
 1234 146 1242 91 1248 80 c 0
 1252 72 1260 68 1266 67 c 1
 1302 85 l 2
 1322 95 1341 100 1354 100 c 0
 1364 100 1374 97 1374 86 c 0
 1374 69 1346.85 42.2921 1311 24 c 2
 1262 -1 l 2
 1232 -16 1201 -25 1174 -25 c 0
 1141 -25 1115 -12 1109 20 c 0
 1101 57 1098 95 1098 134 c 0
 1098 198 1107 327 1123 453 c 1
 857 200 l 2
 795 143 731 90 665 40 c 0
 660 36 655 34 651 34 c 0
 643 34 636 36 632 41 c 0
 573 112 514 207 427 491 c 1
 407 411 381 326 343 235 c 0
 309 150 230 -50 140 -50 c 0
 117 -50 70 -39 45 -11 c 0
 39 -5 37 4 37 15 c 0
 37 59 74 131 98 131 c 0
 107 131 132 96 185 96 c 0
 208 96 241 121 315 323 c 0
 352 425 376 526 387 631 c 0
 387 662 458 703 493 703 c 0
 504 703 511 700 513 692 c 0
 562 506 637 295 688 208 c 2
 700 188 l 1
 757 233 813 280 867 329 c 2
EndSplineSet
EndChar
StartChar: N
Encoding: 78 78 15
Width: 960
Flags: HMW
Back
918.743 630.006 m 1
 916.213 624.615 912.188 614.88 906.811 600.105 c 0
 894.262 565.628 883.012 528.666 867.527 476.944 c 0
 822.386 326.157 781.963 175.141 746.303 24.0332 c 1
 744.213 28.6289 l 1
 684.958 28.6289 l 1
 720.611 177.325 760.723 326.143 805.23 474.808 c 0
 812.907 500.449 833.229 568.941 851.854 620.109 c 0
 870.581 671.565 884.086 696.659 888.076 704.047 c 0
 898.287 722.953 907.766 736.323 916.188 745.628 c 0
 980.284 816.436 1061.2 832.122 1114.59 832.122 c 0
 1131.6 832.122 1135.42 799.418 1123.11 759.122 c 0
 1110.79 718.826 1086.99 686.122 1069.98 686.122 c 0
 1006.29 686.122 950.579 662.488 918.743 630.006 c 1
63.4248 111.39 m 0
 68.417 108.757 73.6504 106.442 79.0938 104.461 c 0
 91.293 100.021 104.541 97.2637 118.447 96.3174 c 0
 128.334 95.6445 129.074 96.6992 131.882 97.375 c 0
 152.22 102.271 161.149 119.902 172.302 146.982 c 0
 175.687 155.202 179.343 164.79 183.169 175.304 c 0
 186.6 184.729 190.167 194.888 193.905 205.547 c 0
 243.108 345.847 273.855 487.44 285.003 631.061 c 1
 285.169 630.654 l 1
 353.666 630.654 l 1
 331.72 442.219 284.348 286.643 250.465 190.026 c 0
 246.723 179.355 242.635 167.688 238.127 155.301 c 0
 234.42 145.117 228.333 128.669 221.202 111.353 c 0
 186.169 26.2852 143.264 -35.958 94.2607 -47.7549 c 0
 91.1396 -48.5059 83.2871 -50.3848 72.1191 -49.625 c 0
 56.0459 -48.5312 40.7295 -45.3564 26.4561 -40.1621 c 0
 20.0879 -37.8447 13.9268 -35.123 8 -31.9971 c 0
 -2.86914 -26.2646 -12.4629 -19.6729 -20.0938 -11.3604 c 0
 -32.1621 1.78516 -28.0049 43.3691 -10.8145 81.4609 c 0
 6.375 119.552 30.1201 139.797 42.1885 126.652 c 0
 46.4893 121.968 54.2891 116.208 63.4248 111.39 c 0
609.968 232.569 m 0
 618.147 216.359 626.754 200.432 635.778 184.8 c 0
 666.184 132.135 701.341 82.8203 740.94 37.2969 c 0
 751.693 24.9346 733.579 -1.80664 700.508 -22.3936 c 0
 667.437 -42.9814 631.868 -49.6572 621.115 -37.2959 c 0
 580.445 9.45801 544.387 60.0459 513.216 114.038 c 0
 503.964 130.064 495.143 146.39 486.759 163.005 c 0
 411.454 312.238 344.523 466.675 286.184 625.806 c 0
 280.562 641.142 303.851 668.585 338.169 687.064 c 0
 372.487 705.543 404.903 708.094 410.525 692.759 c 0
 468.537 534.523 535.092 380.956 609.968 232.569 c 0
EndSplineSet
Fore
285 631 m 0
 285 659 350 703 390 703 c 0
 400 703 408 699 411 693 c 0
 482 499 581 279 636 185 c 0
 655 151 676 119 700 88 c 1
 739 247 832 599 888 704 c 0
 943 805 1047 832 1115 832 c 0
 1126 832 1130 821 1130 805 c 0
 1130 762 1099 686 1070 686 c 0
 1006 686 951 662 919 630 c 1
 893 574 804 269 746 24 c 1
 744 29 l 1
 744 -0 680 -44 640 -44 c 0
 631 -44 625 -42 621 -37 c 0
 568 23 524.268 89.135 487 163 c 0
 431.399 273.201 380 386 334 501 c 1
 310 371 276 263 250 190 c 2
 238 155 l 2
 181 -2 129 -50 74 -50 c 0
 41 -50 -1 -32 -20 -11 c 0
 -25 -6 -27 3 -27 15 c 0
 -27 62 7 131 33 131 c 0
 37 131 40 129 42 127 c 0
 61 106 102 97 123 97 c 0
 147 97 158 107 183 175 c 2
 194 206 l 2
 243 346 274 487 285 631 c 0
EndSplineSet
EndChar
StartChar: O
Encoding: 79 79 16
Width: 927
Flags: HMW
Back
356.641 606.824 m 0
 308.558 579.063 236.686 509.988 210.328 404.561 c 0
 190.465 325.106 200.354 250.249 233.715 192.467 c 0
 277.008 117.482 356.97 75.1123 447.964 75.1123 c 0
 514.606 75.1123 569.361 94.5059 607.286 116.401 c 0
 686.453 162.107 737.731 242.132 756.118 315.681 c 0
 775.954 395.023 768.356 472.328 736.553 527.412 c 0
 704.53 582.876 652.124 610.83 592.503 610.83 c 0
 585.354 610.83 580.402 610.262 578.49 610.038 c 0
 561.298 608.033 553.519 603.061 552.994 602.758 c 0
 543.436 597.239 535.804 589.726 532.348 586.451 c 0
 510.541 565.791 483.706 531.256 461.056 482.67 c 0
 450.641 460.329 412.919 432.49 376.856 420.528 c 0
 340.794 408.567 319.979 416.991 330.394 439.332 c 0
 363.435 510.205 405.664 558.706 436.908 588.308 c 0
 460.264 610.437 489.215 633.241 523.849 653.236 c 0
 541.974 663.7 596.81 693.713 658.94 700.959 c 0
 670.987 702.364 680.294 702.646 687.443 702.646 c 0
 779.136 702.646 837.756 658.906 869.395 604.106 c 0
 896.047 557.945 917.849 478.209 890.861 370.261 c 0
 860.63 249.335 765.475 140.424 636.431 65.9229 c 0
 590.14 39.1973 480.907 -16.7041 353.024 -16.7041 c 0
 231.085 -16.7041 145.443 38.5742 100.872 115.771 c 0
 64.3672 179 53.0684 259.914 75.585 349.98 c 0
 105.373 469.131 198.691 582.939 327.496 657.303 c 0
 351.228 671.004 376.015 683.211 400.615 693.322 c 0
 437.863 708.631 464.323 704.666 459.679 684.472 c 0
 455.034 664.277 421.034 635.463 383.786 620.154 c 0
 373.904 616.093 365.189 611.76 356.641 606.824 c 0
EndSplineSet
Fore
64 259 m 0
 64 538 376 703 440 703 c 0
 452 703 460 698 460 689 c 0
 460 671 429.993 639.016 384 620 c 0
 280 577 200 449 200 323 c 0
 200 184 299 75 448 75 c 0
 639 75 767 232 767 401 c 0
 767 521 699 611 593 611 c 0
 559 611 547 600 532 586 c 0
 511 566 484 531 461 483 c 0
 447 453 386 415 348 415 c 0
 335 415 328 420 328 429 c 0
 328 432 329 435 330 439 c 0
 402 593 555 703 687 703 c 0
 823 703 903 602 903 466 c 0
 903 187 590 -17 353 -17 c 0
 180 -17 64 99 64 259 c 0
EndSplineSet
EndChar
StartChar: P
Encoding: 80 80 17
Width: 834
Flags: HMW
Back
270.019 284.108 m 0
 297.213 392.888 313.525 501.593 318.639 608.506 c 0
 319.526 627.063 350.702 656.131 388.229 673.387 c 0
 425.754 690.643 455.489 689.587 454.603 671.028 c 0
 449.376 561.76 432.705 450.462 404.762 338.688 c 0
 376.817 226.912 337.745 115.22 287.956 5.10938 c 0
 277.909 -17.1074 240.403 -45.0312 204.236 -57.2197 c 0
 168.069 -69.4092 146.869 -61.2695 156.916 -39.0518 c 0
 204.878 67.0176 242.824 175.329 270.019 284.108 c 0
178.162 568.689 m 0
 175.354 567.069 169.318 560.148 163.835 548.929 c 0
 161.012 543.154 158.372 536.172 156.38 528.204 c 0
 151.285 507.826 116.969 479.062 79.7793 463.998 c 0
 42.5898 448.934 16.542 453.246 21.6367 473.624 c 0
 24.4512 484.883 28.4189 495.896 33.8223 506.95 c 0
 54.2822 548.808 95.0215 587.995 149.017 619.169 c 0
 180.565 637.383 210.667 649.506 237.748 658.171 c 0
 309.793 681.223 381.328 685.675 434.091 685.676 c 0
 460.968 685.676 461.514 665.108 435.311 639.768 c 0
 409.106 614.426 366.027 593.859 339.15 593.859 c 0
 277.718 593.859 228.812 586.424 197.119 576.283 c 0
 185.425 572.542 179.206 569.293 178.162 568.689 c 0
656.19 338.519 m 0
 668.475 345.61 679.389 354.04 689.809 365.397 c 0
 703.656 380.489 719.78 404.606 728.12 437.966 c 0
 735.577 467.793 732.267 492.577 720.398 513.133 c 0
 686.835 571.265 585.855 593.858 474.901 593.858 c 2
 339.15 593.859 l 2
 312.273 593.859 311.728 614.426 337.931 639.768 c 0
 364.135 665.108 407.214 685.676 434.091 685.675 c 2
 569.842 685.675 l 2
 672.151 685.675 808.299 667.666 853.24 589.827 c 0
 868.075 564.134 872.731 532.019 862.863 492.545 c 0
 856.604 467.512 841.52 423.975 796.975 375.425 c 0
 769.918 345.935 733.963 316.113 685.335 288.039 c 0
 671.218 279.889 673.9 281.6 671.022 280.046 c 0
 564.717 222.639 456.677 206.053 377.949 206.053 c 0
 351.073 206.053 350.526 226.619 376.73 251.961 c 0
 402.934 277.302 446.014 297.868 472.89 297.868 c 0
 556.556 297.868 619.447 318.598 651.876 336.109 c 0
 652.269 336.322 599.723 305.917 656.19 338.519 c 0
EndSplineSet
Fore
732 467 m 0
 732 577 567 594 475 594 c 2
 449 594 l 1
 438 476 414 363 382 257 c 1
 409 280 448 298 473 298 c 0
 553 298 613 317 647 334 c 2
 656 339 l 2
 700 364 732 418 732 467 c 0
154 -49 m 0
 154 -30 297 226 318 594 c 1
 254 591 198 580 178 569 c 0
 175 567 163 554 156 528 c 0
 149 499 82 455 42 455 c 0
 29 455 21 460 21 469 c 0
 21 470 21 472 22 474 c 1
 51 591 214 686 434 686 c 2
 570 686 l 2
 679 686 868 664 868 533 c 0
 868 484 839 377 685 288 c 2
 671 280 l 2
 565 223 457 206 378 206 c 0
 374 206 370 207 367 208 c 1
 343 136 317 68 288 5 c 0
 274 -25 213 -63 175 -63 c 0
 162 -63 154 -58 154 -49 c 0
EndSplineSet
EndChar
StartChar: Q
Encoding: 81 81 18
Width: 962
Flags: HMW
Back
518.919 85.3799 m 0
 546.322 95.2559 570.203 106.689 590.707 118.527 c 0
 713.091 189.184 742.145 288.896 748.841 315.681 c 0
 766.456 386.144 757.595 452.546 727.871 504.028 c 0
 688.409 572.376 614.674 610.83 532.207 610.83 c 0
 470.682 610.83 420.51 592.838 388.027 574.085 c 0
 320.978 535.375 277.762 466.79 262.265 404.805 c 0
 250.839 359.101 254.554 313.314 277.179 274.128 c 0
 307.441 221.712 363.556 194.971 423.549 194.971 c 0
 482.006 194.971 530.216 205.544 560.285 213.904 c 0
 595.14 223.596 612.119 212.457 598.186 189.042 c 0
 584.252 165.627 544.655 138.759 509.801 129.067 c 0
 445.979 111.322 385.52 103.154 328.608 103.154 c 0
 215.905 103.155 163.823 163.683 144.337 197.434 c 0
 126.759 227.88 109.764 279.19 127.521 350.225 c 0
 154.622 458.625 241.956 557.059 358.883 624.563 c 0
 402.687 649.854 506.019 702.646 627.147 702.646 c 0
 740.388 702.646 819.695 651.766 860.713 580.723 c 0
 884.909 538.815 908.032 468.055 883.584 370.261 c 0
 853.828 251.238 751.317 143.948 619.853 68.0488 c 0
 576.667 43.1162 531.952 22.6279 488.512 6.97168 c 0
 367.173 -36.7588 254.724 -45.9082 160.997 -45.9082 c 0
 134.12 -45.9082 133.574 -25.3418 159.777 0 c 0
 185.98 25.3408 229.061 45.9072 255.938 45.9082 c 0
 378.662 45.9082 461.336 64.627 518.919 85.3799 c 0
753.641 -51.29 m 0
 770.708 -51.29 784.801 -47.8477 789.749 -45.6904 c 0
 789.751 -45.6895 787.932 -46.6562 787.974 -46.6328 c 1
 786.95 -47.2236 782.97 -50.1191 782.885 -50.2051 c 1
 787.505 -45.5293 792.16 -35.3184 794.168 -27.29 c 0
 799.262 -6.91211 833.579 21.8525 870.769 36.917 c 0
 907.957 51.9805 934.005 47.668 928.911 27.29 c 0
 924.324 8.94336 913.794 -16.3613 884.289 -46.2236 c 0
 874.37 -56.2637 853.354 -76.1914 817.118 -97.1113 c 0
 806.282 -103.367 794.594 -109.496 779.834 -115.93 c 0
 729.838 -137.726 686.939 -143.106 658.7 -143.106 c 0
 473.428 -143.106 330.855 -45.9082 160.997 -45.9082 c 0
 134.12 -45.9082 133.574 -25.3418 159.777 0 c 0
 185.98 25.3408 229.061 45.9082 255.938 45.9082 c 0
 441.209 45.9082 583.782 -51.29 753.641 -51.29 c 0
EndSplineSet
Fore
120 292 m 0
 120 491 384 703 627 703 c 0
 790 703 894 596 894 451 c 0
 894 212 638 61 484 5 c 1
 573 -21 659 -51 754 -51 c 0
 767 -51 778 -49 785 -47 c 1
 795 -32 796 7 871 37 c 0
 886 43 899 46 909 46 c 0
 922 46 930 41 930 32 c 0
 930 31 929 29 929 27 c 1
 907 -62 770 -143 659 -143 c 0
 473 -143 331 -46 161 -46 c 0
 147 -46 140 -41 140 -32 c 0
 140 -1 216 46 256 46 c 0
 653 46 758 249 758 385 c 0
 758 523 658 611 532 611 c 0
 341 611 256 452 256 356 c 0
 256 263 326 195 424 195 c 0
 515 195 559 217 582 217 c 0
 596 217 603 212 603 204 c 0
 603 174 528 103 329 103 c 0
 205 103 120 181 120 292 c 0
EndSplineSet
EndChar
StartChar: R
Encoding: 82 82 19
Width: 1018
Flags: HMW
Back
275.79 307.195 m 0
 301.048 408.229 315.44 509.198 318.628 608.243 c 0
 319.221 626.665 350.163 655.739 387.694 673.141 c 0
 425.227 690.542 455.206 689.714 454.612 671.292 c 0
 451.345 569.753 436.597 466.028 410.534 361.775 c 0
 384.471 257.521 347.247 153.343 299.288 50.8252 c 0
 288.83 28.4697 251.084 0.640625 215.034 -11.2939 c 0
 178.983 -23.2285 158.213 -14.7715 168.671 7.58398 c 0
 214.548 105.649 250.533 206.164 275.79 307.195 c 0
178.162 568.689 m 0
 175.354 567.069 169.318 560.148 163.835 548.929 c 0
 161.012 543.154 158.372 536.172 156.38 528.204 c 0
 151.285 507.826 116.969 479.062 79.7793 463.998 c 0
 42.5898 448.934 16.542 453.246 21.6367 473.624 c 0
 24.4512 484.883 28.4189 495.896 33.8223 506.95 c 0
 54.2822 548.808 95.0215 587.995 149.017 619.169 c 0
 180.565 637.383 210.667 649.506 237.748 658.171 c 0
 309.793 681.223 381.328 685.675 434.091 685.676 c 0
 460.968 685.676 461.514 665.108 435.311 639.768 c 0
 409.106 614.426 366.027 593.859 339.15 593.859 c 0
 277.718 593.859 228.812 586.424 197.119 576.283 c 0
 185.425 572.542 179.206 569.293 178.162 568.689 c 0
675.431 396.951 m 0
 695.543 408.562 705.475 425.515 707.149 428.086 c 0
 714.042 438.668 720.595 452.52 724.672 468.829 c 0
 732.374 499.636 729.887 521.957 720.092 538.922 c 0
 689.799 591.391 588.856 593.858 449.483 593.858 c 2
 339.149 593.859 l 2
 312.273 593.859 311.728 614.427 337.931 639.768 c 0
 364.135 665.108 407.215 685.676 434.091 685.675 c 2
 544.424 685.675 l 2
 665.641 685.675 811.083 688.103 852.935 615.616 c 0
 866.212 592.619 869.113 562.202 859.415 523.409 c 0
 853.972 501.635 844.828 480.522 830.974 459.251 c 0
 793.13 401.146 733.303 363.057 704.576 346.472 c 0
 679.831 332.186 654.869 320.588 631.069 311.388 c 0
 547.545 279.103 474.905 274.64 435.876 274.64 c 0
 409 274.64 408.453 295.207 434.656 320.548 c 0
 460.86 345.889 503.939 366.456 530.816 366.456 c 0
 541.585 366.456 601.248 366.605 654.554 387.21 c 0
 663.861 390.808 670.578 394.149 675.431 396.951 c 0
906.14 41.9365 m 0
 864.185 17.7139 823.47 2.62012 793.547 -5.27734 c 0
 763.319 -13.2549 734.357 -18.0693 710.439 -16.7041 c 0
 661.107 -13.8877 632.291 0.0732422 576.106 97.3867 c 0
 561.224 123.163 546.893 150.411 532.31 175.67 c 0
 512.879 209.323 475.177 271.279 437.704 274.554 c 0
 436.026 274.7 445.22 274.64 435.876 274.64 c 0
 409 274.64 408.453 295.207 434.656 320.548 c 0
 460.86 345.889 503.939 366.456 530.816 366.456 c 0
 540.159 366.456 538.692 366.202 540.551 366.039 c 0
 586.514 362.023 620.69 329.372 665.151 252.364 c 0
 680.034 226.588 694.364 199.34 708.948 174.081 c 0
 734.729 129.43 766.452 77.4229 805.38 75.1123 c 0
 822.181 74.1152 837.946 77.9766 847.162 80.4082 c 0
 859.207 83.5869 868.5 87.5107 876.995 92.416 c 0
 883.719 96.2979 890.941 101.496 898.16 107.784 c 0
 927.081 132.98 969.973 151.236 993.901 148.533 c 0
 1017.83 145.83 1013.78 123.187 984.855 97.9893 c 0
 958.46 74.9932 931.098 56.3457 906.14 41.9365 c 0
EndSplineSet
Fore
1010 135 m 0
 1010 97 843 -17 718 -17 c 0
 656 -17 627 10 576 97 c 2
 532 176 l 2
 522 193 476 275 436 275 c 0
 422 275 415 280 415 289 c 0
 415 320 490 366 531 366 c 0
 596 366 650.938 383.107 675 397 c 0
 709.91 417.156 729 462 729 500 c 0
 729 576 664 594 450 594 c 1
 435 426 387.863 241.064 299 51 c 0
 284.978 21.0101 224 -17 187 -17 c 0
 174 -17 166 -12 166 -3 c 0
 166 15 303 255 318 594 c 1
 254 591 198 580 178 569 c 0
 175 567 163 554 156 528 c 0
 149 499 82 455 42 455 c 0
 29 455 21 460 21 469 c 0
 21 470 21 472 22 474 c 1
 51 591 214 686 434 686 c 2
 568 686 l 1
 585 686 l 2
 705 686 865 683 865 565 c 0
 865 463 768 363 627 310 c 1
 640 294 652 275 665 252 c 2
 709 174 l 2
 742 116 770 75 811 75 c 0
 831 75 867 81 898 108 c 0
 925 131 964 149 989 149 c 0
 1002 149 1010 144 1010 135 c 0
EndSplineSet
EndChar
StartChar: S
Encoding: 83 83 20
Width: 715
Flags: HMW
Back
149.055 208.685 m 1
 149.047 208.68 176.555 232.518 170.523 221.563 c 0
 161.587 205.332 156.651 179.25 171.273 153.925 c 0
 175.195 147.132 180.296 141 186.285 135.87 c 0
 243.511 86.8457 312.188 75.1123 359.37 75.1123 c 0
 413.492 75.1123 458.93 84.3867 486.694 94.6357 c 0
 495.791 97.9932 501.561 100.906 504.736 102.74 c 0
 513.354 107.716 521.405 116.964 527.901 128.493 c 0
 532.267 136.239 536.364 145.96 539.182 157.229 c 0
 546.331 185.829 542.637 210.157 530.522 231.139 c 0
 513.305 260.959 476.936 294.364 356.896 329.703 c 0
 316.476 341.602 249.624 367.047 220.966 416.685 c 0
 207.644 439.758 202.44 467.816 211.08 502.374 c 0
 212.474 507.949 214.824 516.041 218.989 525.729 c 0
 238.435 570.961 281.513 612.542 337.836 645.059 c 0
 377.833 668.15 416.82 681.715 445.668 689.207 c 0
 468.292 695.083 504.188 702.646 548.672 702.646 c 0
 597.038 702.646 642.003 696.137 683.382 683.805 c 0
 704.301 677.57 717.69 665.752 726.25 650.927 c 0
 737.487 631.464 740.227 606.714 733.275 578.908 c 2
 732.56 576.045 l 2
 727.464 555.666 693.146 526.902 655.957 511.839 c 0
 618.768 496.775 592.721 501.089 597.816 521.467 c 2
 598.532 524.33 l 2
 602.963 542.051 601.187 560.76 593.408 574.232 c 0
 590.389 579.462 583.077 590.131 568.226 594.557 c 0
 531.597 605.474 492.752 610.83 453.731 610.83 c 0
 426.405 610.83 404.979 606.877 391.136 603.281 c 0
 376.307 599.431 368.106 595.23 366.98 594.58 c 0
 359.693 590.373 352.238 574.996 350.595 571.173 c 0
 349.325 568.221 347.436 563.404 345.823 556.954 c 0
 339.871 533.146 343.135 511.864 353.808 493.379 c 0
 374.12 458.196 421.54 433.821 471.896 418.997 c 0
 517.435 405.591 624.963 374.345 663.364 307.833 c 0
 678.191 282.153 683.655 250.732 673.925 211.809 c 0
 670.03 196.233 664.044 181.039 655.416 165.728 c 0
 647.395 151.492 618.052 100.855 533.881 52.2607 c 0
 508.101 37.377 482.5 25.8936 458.573 17.0615 c 0
 386.853 -9.41211 316.303 -16.7031 264.43 -16.7031 c 0
 208.794 -16.7031 125.809 -4.51953 58.4863 53.1533 c 0
 50.3145 60.1543 43.6123 68.2559 38.4307 77.2305 c 0
 11.4414 123.977 35.8057 171.255 42.5381 183.482 c 0
 46.3291 190.367 65.4297 227.71 119.91 259.164 c 0
 134.981 267.865 170.549 285.992 204.896 285.992 c 0
 231.771 285.992 232.318 265.425 206.114 240.084 c 0
 179.91 214.742 136.831 194.176 109.954 194.176 c 0
 109.916 194.176 124.902 194.74 149.055 208.685 c 1
EndSplineSet
Fore
679 249 m 0
 679 117 494 -17 264 -17 c 0
 139 -17 58 44 38 77 c 0
 30 92 26 108 26 124 c 0
 26 205 127 286 205 286 c 0
 219 286 225 281 225 272 c 0
 225 260 209 234 166 212 c 1
 163 204 162 196 162 189 c 0
 162 169 171 149 186 136 c 0
 244 87 312 75 359 75 c 0
 425 75 481 89 505 103 c 0
 525 115 543 148 543 184 c 0
 543 200 539 216 531 231 c 0
 472 333 281 313 221 417 c 0
 211 433 207 452 207 470 c 0
 207 588 379 703 549 703 c 0
 597 703 642 696 683 684 c 0
 718 673 737 645 737 608 c 0
 737 598 735 587 733 576 c 0
 725 547 658 503 618 503 c 0
 605 503 597 508 597 517 c 0
 597 522 601 531 601 545 c 0
 601 577 581 591 568 595 c 0
 532 605 493 611 454 611 c 0
 419 611 381 603 367 595 c 0
 359 590 343 565 343 534 c 0
 343 464 430.088 431.304 472 419 c 0
 581 387 679 341 679 249 c 0
EndSplineSet
EndChar
StartChar: T
Encoding: 84 84 21
Width: 664
Flags: HMW
Back
331.714 145.53 m 2
 434.093 555.044 l 2
 439.24 575.636 476.531 606.688 517.332 624.359 c 0
 558.133 642.03 587.067 639.66 581.92 619.069 c 2
 479.541 209.556 l 2
 462.499 141.388 436.782 73.1885 402.592 6.2041 c 0
 390.727 -17.04 349.141 -47.2666 309.766 -61.2646 c 0
 270.391 -75.2637 248.063 -67.7598 259.929 -44.5146 c 0
 291.307 16.958 315.57 80.957 331.714 145.53 c 2
894.587 623.293 m 0
 864.897 606.151 839.415 597.251 813.498 592.329 c 0
 796.496 589.101 780.031 587.344 738.232 587.343 c 2
 226.914 587.344 l 2
 211.069 587.344 200.479 583.932 199.084 583.413 c 0
 199.081 583.412 200.413 583.933 203.018 585.437 c 1
 203.013 585.434 207.587 588.334 208.167 588.866 c 1
 206.771 587.585 192.7 573.747 187.676 547.636 c 0
 183.824 527.615 147.469 496.502 106.526 478.188 c 0
 65.583 459.872 35.4795 461.257 39.332 481.277 c 0
 43.999 505.537 58.3496 543.2 104.464 585.551 c 0
 120.782 600.536 144.327 618.856 173.874 635.915 c 0
 192.032 646.399 213.312 656.98 237.219 665.867 c 0
 247.974 669.865 290.603 685.655 337.34 685.655 c 2
 848.657 685.655 l 2
 862.479 685.655 885.766 685.694 896.876 687.804 c 0
 896.893 687.807 884.249 684.629 865.442 673.771 c 1
 867.185 674.776 697.558 538.177 840.791 656.777 c 0
 840.83 656.811 823.606 638.786 823.606 638.786 c 1
 828.754 659.377 866.045 690.431 906.846 708.102 c 0
 947.646 725.772 976.581 723.402 971.434 702.812 c 1
 956.979 673.765 956.521 669.489 931.347 648.644 c 0
 925.103 643.474 902.296 627.744 894.587 623.293 c 0
EndSplineSet
Fore
257 -56 m 0
 257 -41 299 15 332 146 c 2
 434 555 l 2
 436 564 445 576 458 587 c 1
 227 587 l 2
 217 587 209 586 204 585 c 1
 199 579 191 566 188 548 c 0
 181 511 94 465 56 465 c 0
 46 465 39 469 39 478 c 0
 39 549 190 686 337 686 c 2
 867 686 l 1
 874 691 918 720 953 720 c 0
 965 720 972 716 972 707 c 0
 972 706 972 704 971 703 c 2
 961 682 954 658 895 623 c 0
 841 593 801 587 738 587 c 2
 574 587 l 1
 480 210 l 2
 462 141 437 73 403 6 c 0
 386 -26 317 -68 276 -68 c 0
 264 -68 257 -64 257 -56 c 0
EndSplineSet
EndChar
StartChar: U
Encoding: 85 85 22
Width: 732
Flags: HMW
Back
284.342 40.8691 m 0
 253.288 22.9414 179.11 -16.7041 110.562 -16.7041 c 0
 49.1572 -16.7041 23.2471 15.4404 11.4395 35.8926 c 0
 -5.82422 65.793 -17.0869 118.837 0.4375 188.934 c 0
 35.708 330.016 163.523 541.118 136.769 587.459 c 0
 133.543 593.045 129.276 593.858 126.225 593.858 c 0
 120.076 593.858 115.1 593.434 112.132 593.119 c 0
 108.879 592.774 89.8418 590.81 75.3701 582.455 c 0
 75.1172 582.309 74.7344 582.084 74.4834 581.933 c 0
 38.207 560.175 0.938477 553.06 -8.7041 566.051 c 0
 -18.3477 579.043 3.26855 607.245 39.5449 629.003 c 0
 40.873 629.799 44.8828 632.159 46.2256 632.934 c 0
 69.4102 646.319 126.651 677.064 194.136 684.213 c 0
 199.82 684.815 208.755 685.675 221.165 685.675 c 0
 247.78 685.675 262.447 676.56 269.61 664.153 c 0
 306.857 599.641 171.222 387.678 135.181 243.514 c 0
 120.203 183.602 129.531 138.135 144.281 112.587 c 0
 160.079 85.2246 183.712 75.1123 205.502 75.1123 c 0
 215.378 75.1123 228.615 76.002 255.197 91.3486 c 0
 392.641 170.699 613.832 450.877 654.232 612.478 c 0
 659.327 632.855 693.645 661.619 730.833 676.684 c 0
 768.022 691.747 794.07 687.435 788.976 667.057 c 0
 744.707 489.984 504.644 168.058 284.342 40.8691 c 0
643.515 216.661 m 0
 632.992 174.575 627.204 132.441 626.312 91.1895 c 0
 626.207 86.3213 627.351 81.835 629.454 78.1924 c 0
 632.846 72.3174 639.546 68.4219 644.299 67.9414 c 0
 646.841 67.6836 638.812 68.6758 621.217 59.7988 c 1
 670.756 84.793 l 2
 708.203 103.687 740.687 105.314 743.262 88.4258 c 0
 745.838 71.5381 717.535 42.4971 680.087 23.6035 c 2
 630.548 -1.39062 l 2
 595.812 -18.915 563.74 -25.8057 540.394 -23.4453 c 0
 527.453 -22.1367 507.459 -17.29 496.612 1.49805 c 0
 492.391 8.80957 490.097 17.542 490.318 27.792 c 0
 491.266 71.623 497.405 116.619 508.771 162.081 c 0
 546.728 313.906 595.72 465.634 655.419 616.121 c 0
 664.036 637.843 700.681 666.064 737.215 679.117 c 0
 773.749 692.17 796.406 685.134 787.789 663.413 c 0
 729.162 515.631 680.924 366.299 643.515 216.661 c 0
EndSplineSet
Fore
276 634 m 0
 276 531 127 314 127 184 c 0
 127 117 161 75 206 75 c 0
 291 75 522 322 618 518 c 2
 655 616 l 2
 666 644 727 686 769 686 c 0
 780 686 790 682 790 672 c 0
 790 662 775 617 751 567 c 0
 697 419 627 193 627 99 c 0
 627 87 627 75 640 69 c 1
 671 85 l 2
 691 95 710 100 723 100 c 0
 733 100 743 97 743 86 c 0
 743 69 715.852 42.2921 680 24 c 2
 631 -1 l 2
 599.925 -16.8544 572 -24 550 -24 c 0
 513 -24 490 -4 490 26 c 0
 490 92 507 161 533 252 c 1
 399 104 238 -17 111 -17 c 0
 15 -17 -8 60 -8 121 c 0
 -8 256 140 487 140 570 c 0
 140 581 138 594 126 594 c 0
 71 594 55 560 9 560 c 0
 -1 560 -11 563 -11 573 c 0
 -11 605 103 686 221 686 c 0
 261 686 276 666 276 634 c 0
EndSplineSet
EndChar
StartChar: V
Encoding: 86 86 23
Width: 762
Flags: HMW
Back
185.835 511.01 m 0
 150.512 572.194 105.36 598.809 57.6543 598.809 c 0
 31.4111 598.809 28.6318 618.298 51.4502 642.312 c 0
 74.2676 666.325 114.086 685.814 140.328 685.814 c 0
 247.102 685.814 293.035 608.38 308.397 581.771 c 0
 392.186 436.642 389.279 168.018 383.396 58.0488 c 1
 342.268 29.2754 309.181 8.88379 292.253 0 c 1
 254.288 -42.7002 l 1
 254.302 -41.1953 254.513 -39.585 254.933 -37.8701 c 1
 252.139 -49.291 292.503 326.247 185.835 511.01 c 0
720.42 458.182 m 0
 720.757 459.105 721.955 462.416 722.864 466.054 c 0
 722.951 466.402 722.29 463.29 722.293 463.337 c 0
 723.534 487.073 700.937 519.2 664.651 532.407 c 0
 651.607 537.155 636.829 539.763 620.895 539.763 c 0
 603.879 539.763 600.062 572.467 612.375 612.763 c 0
 624.688 653.059 648.49 685.763 665.506 685.763 c 0
 684.267 685.763 701.649 682.724 717.289 677.031 c 0
 750.252 665.032 802.867 629.377 798.109 538.428 c 0
 797.3 522.969 794.733 504.801 789.808 485.1 c 0
 785.854 469.286 780.927 453.423 775.378 438.178 c 0
 770.091 423.653 764.256 409.69 758.121 396.443 c 0
 638.689 138.546 291.673 -63.6973 278.552 -70.583 c 0
 258.958 -80.8652 249.193 -57.5898 256.756 -18.6279 c 0
 264.319 20.334 286.359 60.3008 305.954 70.584 c 0
 402.234 121.11 653.546 312.718 715.953 447.478 c 0
 717.925 451.734 719.358 455.263 720.42 458.182 c 0
EndSplineSet
Fore
140 686 m 0
 337 686 386 423 386 157 c 2
 386 120 l 1
 545 231 699 383 722 464 c 1
 723 492 688 540 621 540 c 0
 610 540 605 551 605 567 c 0
 605 610 636 686 666 686 c 0
 750 686 797 633 797 549 c 0
 797 505 784 453 758 396 c 0
 639 139 292 -64 279 -71 c 1
 275 -72 273 -73 270 -73 c 0
 260 -73 254 -62 254 -43 c 0
 254 -36 260 32 260 113 c 0
 260 512 139 599 58 599 c 0
 43 599 36 605 36 614 c 0
 36 643 100 686 140 686 c 0
EndSplineSet
EndChar
StartChar: W
Encoding: 87 87 24
Width: 1204
Flags: HMW
Back
168.282 525.042 m 0
 135.301 582.168 93.7988 598.809 57.6543 598.809 c 0
 31.4111 598.809 28.6318 618.298 51.4502 642.312 c 0
 74.2676 666.325 114.086 685.814 140.328 685.814 c 0
 234.747 685.814 275.524 622.341 290.845 595.804 c 0
 352.019 489.843 356.09 303.898 348.728 169.286 c 1
 403.414 230.733 454.931 294.07 502.984 358.84 c 0
 559.841 435.475 611.666 513.864 658.196 593.223 c 1
 651.309 607.742 l 2
 644.307 622.319 666.27 649.638 700.334 668.721 c 0
 734.397 687.803 767.726 691.459 774.728 676.881 c 0
 824.908 572.405 864.794 461.815 893.984 346.216 c 0
 915.579 260.695 931.268 172.641 940.967 82.5332 c 1
 903.962 42.6387 873.604 13.0166 859.053 0 c 2
 821.045 -42.75 l 1
 812.729 68.6318 795.287 177.142 768.854 281.822 c 0
 748.026 364.306 721.668 444.215 689.937 521.119 c 1
 636.269 428.821 577.396 339.642 513.799 253.922 c 0
 430.866 142.141 340.186 36.6064 242.677 -62.0791 c 0
 221.729 -83.2803 205.959 -72.6748 207.478 -38.4072 c 0
 207.82 -30.6738 209.014 -22.3936 210.898 -13.9629 c 0
 220.908 70.8242 254.227 376.176 168.282 525.042 c 0
1161.83 451.078 m 0
 1163.99 457.021 1165.46 461.867 1166.5 466.054 c 0
 1166.56 466.264 1165.74 482.745 1165.73 482.796 c 0
 1162.29 501.19 1149.94 524.899 1122.03 535.059 c 0
 1113.7 538.089 1104.29 539.763 1093.88 539.763 c 0
 1076.86 539.763 1073.05 572.467 1085.36 612.763 c 0
 1097.67 653.059 1121.47 685.763 1138.49 685.763 c 0
 1151.68 685.763 1163.76 683.651 1174.67 679.682 c 0
 1225.73 661.096 1237.12 607.576 1239.73 593.618 c 0
 1244.71 566.952 1244.97 531.182 1233.45 485.099 c 0
 1228.87 466.771 1223.16 448.573 1216.79 431.075 c 0
 1131.97 198.029 875.073 -45.4541 853.481 -64.7705 c 0
 832.704 -83.3574 818.338 -69.4258 821.414 -33.6729 c 0
 824.49 2.08105 843.849 46.1826 864.626 64.7695 c 0
 951.251 142.266 1121.14 339.284 1161.83 451.078 c 0
EndSplineSet
Fore
36 614 m 0
 36 643 100 686 140 686 c 0
 309 686 352 484 352 271 c 0
 352 237 351 203 349 169 c 1
 464 299 570 443 658 593 c 1
 651 608 l 2
 650 610 650 612 650 614 c 0
 650 643 714 686 754 686 c 0
 764 686 772 683 775 677 c 0
 852 515 908 333 935 134 c 1
 1068 276 1167 432 1167 471 c 0
 1167 489 1152 540 1094 540 c 0
 1083 540 1078 551 1078 567 c 0
 1078 610 1109 686 1138 686 c 0
 1198 686 1243 642 1243 558 c 0
 1243 309 885 -36 853 -65 c 0
 847 -70 842 -73 837 -73 c 0
 827 -73 821 -62 821 -43 c 0
 821 27 786 287 690 521 c 1
 565 306 413 111 243 -62 c 0
 235 -70 228 -74 223 -74 c 0
 212 -74 208 -59 208 -41 c 0
 208 -31 226 80 226 217 c 0
 226 478 155 599 58 599 c 0
 43 599 36 605 36 614 c 0
EndSplineSet
EndChar
StartChar: X
Encoding: 88 88 25
Width: 837
Flags: HMW
Back
729.598 31.5449 m 0
 703.444 16.4453 681.601 9.01465 657.932 4.67773 c 0
 641.854 1.73145 626.258 0.267578 585.588 0.267578 c 0
 558.594 0.267578 523.323 7.86523 500.088 48.1074 c 0
 486.261 72.0566 479.407 101.722 475.782 131.042 c 2
 431.753 487.2 l 2
 428.383 514.458 421.808 541.366 410.39 561.141 c 0
 395.403 587.099 376.808 593.859 362.792 593.859 c 0
 349.19 593.859 326.399 593.927 315.77 591.979 c 0
 315.759 591.977 326.756 594.616 342.867 603.918 c 1
 342.865 603.917 380.925 638.777 380.484 637.017 c 0
 375.39 616.639 341.072 587.874 303.883 572.811 c 0
 266.694 557.746 240.646 562.059 245.741 582.437 c 0
 249.354 596.888 264.435 625.941 313.723 654.397 c 0
 343.384 671.521 370.745 678.581 385.389 681.265 c 0
 401.467 684.211 417.062 685.675 457.732 685.675 c 0
 484.726 685.675 519.997 678.078 543.232 637.836 c 0
 557.06 613.886 563.913 584.221 567.538 554.9 c 2
 611.567 198.742 l 2
 614.938 171.484 621.513 144.577 632.931 124.802 c 0
 647.917 98.8447 666.513 92.083 680.528 92.083 c 0
 694.13 92.083 716.921 92.0156 727.551 93.9629 c 0
 727.562 93.9648 716.564 91.3252 700.453 82.0244 c 1
 700.455 82.0254 662.396 47.1641 662.836 48.9258 c 0
 667.931 69.3037 702.248 98.0684 739.437 113.132 c 0
 776.626 128.196 802.674 123.884 797.58 103.506 c 0
 793.967 89.0537 778.886 60.001 729.598 31.5449 c 0
64.0107 31.498 m 0
 57.2949 43.1289 54.7617 57.5762 59.2676 75.5967 c 0
 63.5781 92.8418 81.123 128.049 160.208 184.942 c 0
 182.622 201.067 219.171 225.606 281.155 261.393 c 0
 397.831 328.753 563.863 411.872 673.257 475.029 c 0
 719.08 501.484 745.012 518.54 761.247 530.22 c 0
 763.178 531.608 787.92 549.259 789.547 555.766 c 0
 791.371 563.063 790.499 571.178 786.704 577.75 c 0
 779.259 590.646 765.333 593.859 758.096 593.859 c 0
 731.22 593.859 730.674 614.427 756.878 639.768 c 0
 783.082 665.109 826.161 685.676 853.038 685.675 c 0
 872.798 685.675 904.529 680.454 919.547 654.444 c 0
 926.262 642.812 928.795 628.366 924.29 610.346 c 0
 919.979 593.101 902.435 557.894 823.35 501 c 0
 800.935 484.875 764.387 460.336 702.401 424.55 c 0
 585.727 357.189 419.694 274.07 310.301 210.913 c 0
 264.478 184.458 238.546 167.402 222.311 155.723 c 0
 220.38 154.334 195.638 136.684 194.011 130.177 c 0
 192.187 122.879 193.059 114.765 196.853 108.192 c 0
 204.299 95.2959 218.224 92.083 225.461 92.083 c 0
 252.338 92.083 252.884 71.5166 226.681 46.1758 c 0
 200.477 20.834 157.397 0.267578 130.521 0.267578 c 0
 110.76 0.267578 79.0283 5.4873 64.0107 31.498 c 0
EndSplineSet
Fore
246 78 m 0
 246 47 171 0 131 0 c 0
 85 0 57 24 57 58 c 0
 57 117 134 186 448 353 c 1
 432 487 l 2
 425 543 404 594 363 594 c 2
 342 594 l 1
 324 581 292 564 266 564 c 0
 253 564 245 569 245 578 c 0
 245 610 311 668 385 681 c 0
 401 684 417 686 458 686 c 0
 524 686 557 640 568 555 c 2
 584 425 l 1
 656 464 719 500 761 530 c 0
 773 538 791 549 791 564 c 0
 791 578 778 594 758 594 c 0
 744 594 738 599 738 608 c 0
 738 639 813 686 853 686 c 0
 899 686 927 662 927 628 c 0
 927 575 863 510 591 363 c 1
 612 199 l 2
 618 143 639 92 681 92 c 2
 701 92 l 1
 720 105 752 122 778 122 c 0
 790 122 798 117 798 108 c 0
 798 83 743.989 21.0604 658 5 c 0
 641.998 2.01124 626 0 586 0 c 0
 520 0 487 46 476 131 c 2
 456 291 l 1
 361 240 275 194 222 156 c 0
 211 148 193 137 193 122 c 0
 193 108 206 92 225 92 c 0
 239 92 246 87 246 78 c 0
EndSplineSet
EndChar
StartChar: Y
Encoding: 89 89 26
Width: 778
Flags: HMW
Back
378.85 -11.2842 m 1
 380.182 72.0898 379.712 339.59 288.383 497.782 c 0
 249.561 565.027 200.679 596.854 148.986 598.721 c 1
 125.871 579.268 93.0879 564.635 70.3105 564.51 c 0
 43.9316 564.365 40.9131 583.737 63.5723 607.751 c 0
 78.1943 623.245 98.6611 640.023 122.831 653.978 c 0
 141.185 664.574 182.573 685.813 226.809 685.813 c 0
 320.996 685.813 376.592 628.049 410.946 568.544 c 0
 489.214 432.977 503.459 206.806 504.93 89.2539 c 1
 462.163 50.7979 418.981 16.7969 378.85 -11.2842 c 1
174.873 -27.501 m 0
 189.505 -32.8262 205.894 -35.6992 223.43 -35.6992 c 0
 300.958 -35.6982 651.065 214.232 737.012 450.355 c 0
 741.081 461.536 744.42 472.371 747.108 483.124 c 0
 748.693 489.465 747.554 496.407 745.279 503.972 c 0
 739.952 521.688 724.442 544.259 692.619 555.841 c 0
 680.419 560.281 666.584 562.731 651.612 562.731 c 0
 634.68 562.731 628.702 590.283 638.271 624.23 c 0
 647.84 658.179 669.348 685.73 686.281 685.73 c 0
 704.574 685.73 721.517 682.768 736.795 677.206 c 0
 791.772 657.197 807.709 610.062 811.516 597.404 c 0
 819.218 571.791 821.783 535.919 810.545 490.966 c 0
 805.431 470.512 799.132 450.2 791.915 430.373 c 0
 680.152 123.322 294.231 -158.698 188.761 -158.698 c 0
 167.897 -158.698 148.402 -155.31 130.698 -148.866 c 0
 89.7715 -133.971 53.4336 -100.324 39.6055 -44.8271 c 0
 33.8145 -21.585 44.1836 17.3604 62.751 42.1045 c 0
 81.3184 66.8486 101.087 68.0674 106.878 44.8262 c 0
 119.07 -4.10352 162.204 -22.8896 174.873 -27.501 c 0
EndSplineSet
Fore
504 142 m 1
 720 337 748 479 748 490 c 0
 748 515 721 563 652 563 c 0
 640 563 634 575 634 594 c 0
 634 636 664 686 686 686 c 0
 761 686 818 635 818 549 c 0
 818 531 816 512 811 491 c 0
 726 154 300 -159 189 -159 c 0
 79 -159 38 -68 38 -30 c 0
 38 14 70 61 91 61 c 0
 98 61 104 56 107 45 c 0
 119 -5 167 -36 223 -36 c 0
 250 -36 309 -6 379 43 c 1
 375 366 292 594 149 599 c 1
 126 579 93 565 70 565 c 0
 56 565 48 570 48 579 c 0
 48 607 141 686 227 686 c 0
 435 686 494 397 504 142 c 1
EndSplineSet
EndChar
StartChar: Z
Encoding: 90 90 27
Width: 837
Flags: HMW
Back
673.384 577.991 m 0
 580.839 577.991 494.313 587.344 408.64 587.344 c 0
 384.312 587.344 362.609 582.302 354.284 578.605 c 0
 354.279 578.603 356.078 579.573 356.062 579.564 c 0
 355.955 579.502 361.108 582.937 361.409 583.224 c 1
 360.545 582.396 350.223 572.401 344.854 550.922 c 0
 339.705 530.331 302.414 499.277 261.614 481.606 c 0
 220.813 463.936 191.878 466.306 197.025 486.896 c 0
 206.999 526.79 234.082 557.392 253.219 575.702 c 0
 264.312 586.316 287.484 607.275 326.917 630.042 c 0
 339.269 637.174 352.617 644.209 369.335 651.632 c 0
 432.172 679.533 485.061 685.656 519.065 685.656 c 0
 611.61 685.655 698.136 676.304 783.81 676.304 c 0
 804.024 676.304 820.465 679.494 831.118 682.336 c 0
 867.873 692.139 882.734 679.56 864.29 654.258 c 0
 845.846 628.957 801.046 600.467 764.29 590.663 c 0
 730.475 581.645 700.67 577.991 673.384 577.991 c 0
477.124 373.873 m 0
 568.011 452.546 655.28 537.118 737.836 626.866 c 0
 762.312 653.474 808.996 679.385 842.044 684.702 c 0
 875.091 690.021 882.048 672.741 857.572 646.133 c 0
 769.134 549.989 674.372 457.979 573.634 370.779 c 0
 439.13 254.35 299.422 143.175 155.079 37.8418 c 0
 118.946 11.4736 73.6846 -4.72852 54.0479 1.67578 c 0
 34.4111 8.0791 47.7988 34.6768 83.9316 61.0439 c 0
 218.549 159.28 349.807 263.665 477.124 373.873 c 0
272.986 107.951 m 0
 403.371 107.951 528.827 98.5986 654.375 98.5986 c 0
 658.772 98.5986 661.353 99.0693 662.073 99.21 c 0
 662.09 99.2139 655.855 97.3652 647.708 92.6611 c 1
 648.304 93.0059 640.839 88.249 640.84 88.251 c 0
 646.929 93.7832 670.748 119.781 681.907 164.418 c 0
 687.056 185.01 724.347 216.062 765.146 233.733 c 0
 805.947 251.404 834.883 249.034 829.735 228.443 c 0
 823.435 203.242 804.695 146.224 743.322 90.4512 c 0
 727.441 76.0205 705.153 58.5225 676.853 42.1826 c 0
 668.044 37.0977 626.007 12.9805 579.772 3.94336 c 0
 567.975 1.63672 556.636 0.286133 543.949 0.286133 c 0
 413.565 0.286133 288.107 9.63867 162.56 9.63867 c 0
 133.653 9.63867 104.933 6.79297 77.5986 1.66406 c 0
 43.5977 -4.71484 34.7773 11.5127 57.9102 37.8867 c 0
 81.042 64.2607 127.411 90.8418 161.412 97.2217 c 0
 200.384 104.533 237.484 107.951 272.986 107.951 c 0
604.694 335.832 m 0
 604.613 335.973 611.01 330.395 610.999 330.398 c 0
 602.759 333.219 544.512 334.326 498.322 334.325 c 2
 334.548 334.325 l 2
 310.492 334.325 303.091 351.35 318.026 372.326 c 0
 332.962 393.302 364.606 410.326 388.662 410.326 c 2
 552.436 410.325 l 2
 609.119 410.326 667.719 410.104 688.837 402.875 c 0
 698.048 399.722 701.455 395.39 703.054 392.62 c 0
 704.469 390.17 705.447 380.59 704.593 377.175 c 0
 699.729 357.719 673.144 335.565 645.249 327.727 c 0
 617.354 319.888 598.663 329.316 603.527 348.773 c 0
 603.527 348.773 604.727 335.777 604.694 335.832 c 0
EndSplineSet
Fore
310 352 m 0
 310 376 352 410 389 410 c 2
 518 410 l 1
 593 478 650 534 692 578 c 1
 673 578 l 2
 581 578 494 587 409 587 c 0
 388 587 369 584 359 580 c 1
 355 576 349 566 345 551 c 0
 338 522 262 470 216 470 c 0
 204 470 196 474 196 482 c 0
 196 484 197 485 197 487 c 1
 222 587 382 686 519 686 c 0
 612 686 698 676 784 676 c 0
 822 676 835 686 853 686 c 0
 865 686 872 681 872 673 c 0
 872 667 869 657 854 643 c 0
 798 582 722 504 618 410 c 1
 679 409 706 404 706 384 c 0
 706 359 663 325 627 325 c 0
 619 325 612 327 608 331 c 1
 596 333 564 334 531 334 c 1
 451 266 358 190 249 108 c 1
 273 108 l 0
 402 108 526 99 650 99 c 1
 660 111 674 133 682 164 c 0
 689 193 765 246 811 246 c 0
 823 246 830 241 830 233 c 2
 830 228 l 1
 797 96 643 0 544 0 c 0
 414 0 288 10 163 10 c 0
 109 10 76 0 64 0 c 0
 55 0 45 3 45 13 c 0
 45 33 80 60 97 71 c 0
 231 169 341 257 431 334 c 1
 335 334 l 2
 319 334 310 342 310 352 c 0
EndSplineSet
EndChar
